<svg width="48" height="49" viewBox="0 0 48 49" fill="none" xmlns="http://www.w3.org/2000/svg">
<g clip-path="url(#clip0_104_703)">
<path d="M29.3848 20.5588C29.3848 17.8117 27.15 15.5769 24.4029 15.5769H22.3666C19.6195 15.5769 17.3848 17.8117 17.3848 20.5588C17.3848 20.9644 17.4346 21.3711 17.5334 21.7671L17.9257 23.3344L17.8971 23.5329C18.0535 22.9394 18.5885 22.5 19.2309 22.5H19.7585L19.6975 21.6498C19.6943 21.6014 19.6925 21.5524 19.6925 21.5035V21.3946C19.6925 20.9317 19.9237 20.4992 20.3091 20.2426C20.8098 19.9089 21.3983 19.7308 22.0002 19.7308H22.0537C22.8951 19.7308 23.6908 20.1134 24.216 20.7701L24.7629 21.4537C25.0588 21.8234 25.5065 22.0384 25.98 22.0384C26.4078 22.0384 26.7951 21.8654 27.0766 21.5866L27.0762 21.588L27.0111 22.5H27.5386C28.1811 22.5 28.716 22.9394 28.8725 23.5329L28.8438 23.3344L29.2366 21.7671C29.3349 21.3711 29.3848 20.9649 29.3848 20.5588Z" fill="#274F9A"/>
<path d="M18.7698 15.2547L16.2692 13.1709C15.8054 12.7841 15.5391 12.2155 15.5391 11.6114C15.5391 11.0695 15.75 10.56 16.1331 10.176C16.5208 9.78875 17.0321 9.5769 17.5763 9.5769H17.6557C18.0572 9.5769 18.4412 9.69229 18.7698 9.90783C19.0984 9.69229 19.4824 9.5769 19.884 9.5769H19.9634C20.5075 9.5769 21.0189 9.78875 21.4038 10.1732C21.7897 10.5595 22.0006 11.0695 22.0006 11.6114C22.0006 12.216 21.7343 12.7841 21.2704 13.1709L18.7698 15.2547Z" fill="#274F9A"/>
<path d="M12.3079 19.8702L9.8073 17.7863C9.34346 17.3996 9.07715 16.8309 9.07715 16.2268C9.07715 15.6849 9.28807 15.1754 9.67115 14.7914C10.0588 14.4042 10.5702 14.1923 11.1144 14.1923H11.1938C11.5953 14.1923 11.9793 14.3077 12.3079 14.5232C12.6365 14.3077 13.0205 14.1923 13.4221 14.1923H13.5015C14.0456 14.1923 14.557 14.4042 14.9419 14.7886C15.3278 15.1749 15.5387 15.6849 15.5387 16.2268C15.5387 16.8314 15.2724 17.3996 14.8085 17.7863L12.3079 19.8702Z" fill="#274F9A"/>
<path d="M28.0003 15.2547L25.4997 13.1709C25.0358 12.7841 24.7695 12.2155 24.7695 11.6114C24.7695 11.0695 24.9805 10.56 25.3635 10.176C25.7512 9.78875 26.2626 9.5769 26.8068 9.5769H26.8861C27.2877 9.5769 27.6717 9.69229 28.0003 9.90783C28.3289 9.69229 28.7129 9.5769 29.1145 9.5769H29.1938C29.738 9.5769 30.2494 9.78875 30.6343 10.1732C31.0201 10.5595 31.2311 11.0695 31.2311 11.6114C31.2311 12.216 30.9648 12.7841 30.5009 13.1709L28.0003 15.2547Z" fill="#274F9A"/>
<path d="M34.4622 19.8702L31.9616 17.7863C31.4978 17.3996 31.2314 16.8309 31.2314 16.2268C31.2314 15.6849 31.4424 15.1754 31.8254 14.7914C32.2131 14.4042 32.7245 14.1923 33.2687 14.1923H33.3481C33.7496 14.1923 34.1336 14.3077 34.4622 14.5232C34.7908 14.3077 35.1748 14.1923 35.5764 14.1923H35.6558C36.1999 14.1923 36.7113 14.4042 37.0962 14.7886C37.4821 15.1749 37.693 15.6849 37.693 16.2268C37.693 16.8314 37.4267 17.3996 36.9628 17.7863L34.4622 19.8702Z" fill="#274F9A"/>
<path d="M23.3852 26.6539C24.4034 26.6539 25.2314 25.8259 25.2314 24.8077V23.8846H21.5391V24.8077C21.5391 25.8259 22.3671 26.6539 23.3852 26.6539ZM24.3083 24.8077C24.3083 25.3168 23.8943 25.7308 23.3852 25.7308C22.8761 25.7308 22.4621 25.3168 22.4621 24.8077H24.3083Z" fill="#274F9A"/>
<path d="M36.2165 22.0385H35.5759L35.1453 21.6078C34.8278 21.2903 34.4055 21.1154 33.9564 21.1154C33.2318 21.1154 32.5907 21.5774 32.3613 22.2651L32.215 22.704L25.8291 28.6643L25.4507 27.9069C26.2441 27.4131 26.851 26.6441 27.1358 25.7312H27.5387C28.5568 25.7312 29.3848 24.9032 29.3848 23.8851C29.3848 22.8669 28.5568 22.0389 27.5387 22.0389H27.5068L27.5253 21.78C27.8216 21.4283 28.0002 20.9746 28.0002 20.4798V20.1923H27.0771V20.4798C27.0771 21.0849 26.5851 21.5769 25.9801 21.5769C25.645 21.5769 25.333 21.4269 25.1239 21.1648L24.577 20.4817C23.9604 19.7114 23.041 19.2692 22.0538 19.2692H22.0002C21.3051 19.2692 20.6318 19.4732 20.053 19.8586C19.5384 20.202 19.231 20.7761 19.231 21.3946V21.5035C19.231 21.564 19.2333 21.624 19.2379 21.6826L19.2633 22.0385H19.231C18.2128 22.0385 17.3848 22.8665 17.3848 23.8846C17.3848 24.9028 18.2128 25.7308 19.231 25.7308H19.6344C19.9191 26.6437 20.5256 27.4131 21.3195 27.9065L20.941 28.6638L14.5547 22.704L14.4084 22.2646C14.179 21.5774 13.5379 21.1154 12.8133 21.1154C12.3642 21.1154 11.9419 21.2903 11.6244 21.6078L11.1938 22.0385H10.5531C9.73946 22.0385 9.07715 22.7008 9.07715 23.5145C9.07715 24.2155 9.57607 24.8243 10.2633 24.9618L11.6101 25.2309L17.8464 31.9126V38.1923H28.9233V31.9126L35.1596 25.2309L36.5064 24.9618C37.1936 24.8243 37.6925 24.2155 37.6925 23.5145C37.6925 22.7008 37.0302 22.0385 36.2165 22.0385ZM27.5387 22.9615C28.0478 22.9615 28.4618 23.3755 28.4618 23.8846C28.4618 24.3937 28.0478 24.8077 27.5387 24.8077H27.3088L27.4408 22.9615H27.5387ZM18.3079 23.8846C18.3079 23.3755 18.7219 22.9615 19.231 22.9615H19.3288L19.4604 24.8077H19.231C18.7219 24.8077 18.3079 24.3937 18.3079 23.8846ZM21.5387 30.3835L22.2656 30.9651C22.0131 31.0408 21.7685 31.1381 21.5387 31.2674V30.3835ZM20.3839 24.7828L20.1582 21.6157C20.1555 21.5783 20.1541 21.5409 20.1541 21.5035V21.3946C20.1541 21.0854 20.3078 20.7983 20.5653 20.6266C20.9913 20.3428 21.4879 20.1923 22.0002 20.1923H22.0538C22.7585 20.1923 23.4153 20.508 23.8556 21.0586L24.4025 21.7417C24.7879 22.2235 25.363 22.5 25.9801 22.5C26.1795 22.5 26.3724 22.4709 26.5542 22.4169L26.3858 24.7828C26.2736 26.3497 24.9555 27.5769 23.3848 27.5769C21.8142 27.5769 20.4961 26.3497 20.3839 24.7828ZM23.3848 28.5C23.8131 28.5 24.2258 28.4266 24.6139 28.2974L25.1128 29.2957L23.3848 30.678L21.6568 29.2957L22.1558 28.2974C22.5439 28.4266 22.9565 28.5 23.3848 28.5ZM25.231 30.3835V31.2674C25.0011 31.1381 24.7565 31.0408 24.5041 30.9651L25.231 30.3835ZM10.0002 23.5145C10.0002 23.2098 10.2481 22.9615 10.5531 22.9615H11.5759L12.277 22.2605C12.4201 22.1174 12.6107 22.0385 12.8133 22.0385C13.1401 22.0385 13.4295 22.2471 13.5333 22.5568L13.615 22.8018L11.7264 24.3129L10.4451 24.0568C10.1871 24.0051 10.0002 23.7771 10.0002 23.5145ZM28.0002 31.5489V37.2692H18.7695V31.5489L12.5239 24.8571L14.131 23.5712L20.6156 29.6238V33.3069L21.4035 32.5186C21.9116 32.0105 22.5868 31.7308 23.3055 31.7308H23.4642C24.1828 31.7308 24.8585 32.0105 25.3662 32.5186L26.1541 33.3069V29.6238L32.6387 23.5712L34.2458 24.8571L28.0002 31.5489ZM36.325 24.0568L35.0438 24.3129L33.1551 22.8018L33.2368 22.5572C33.3402 22.2471 33.6296 22.0385 33.9564 22.0385C34.1585 22.0385 34.3496 22.1174 34.4927 22.2605L35.1938 22.9615H36.2165C36.5216 22.9615 36.7695 23.2098 36.7695 23.5145C36.7695 23.7771 36.5825 24.0051 36.325 24.0568Z" fill="#274F9A"/>
</g>
<circle cx="24" cy="24.5" r="23.7" stroke="#274F9A" stroke-width="0.6"/>
<defs>
<clipPath id="clip0_104_703">
<rect width="29.5385" height="29.5385" fill="white" transform="translate(8.61523 9.11536)"/>
</clipPath>
</defs>
</svg>
