<svg width="264" height="67" viewBox="0 0 264 67" fill="none" xmlns="http://www.w3.org/2000/svg">
<path d="M50.3572 40.5407H40.718L35.4554 31.1028H19.6139L23.2789 24.4283H31.7367L24.8765 12.147L9.14242 40.5407H0L21.3189 2.88272C21.6499 2.12418 22.1871 1.47246 22.8701 1.00082C23.5531 0.529176 24.3549 0.256311 25.1853 0.212891C26.0227 0.263697 26.829 0.547088 27.5124 1.03085C28.1959 1.51461 28.7292 2.17934 29.0517 2.94947L50.3572 40.5407Z" fill="#274F9A"/>
<path d="M74.6701 40.5408H52.5859V0.693623H74.6701C77.16 0.618471 79.6376 1.06853 81.94 2.01419C84.2424 2.95984 86.3172 4.37964 88.0279 6.18012C91.5604 9.98331 93.4334 15.0234 93.2368 20.1967C93.416 25.5292 91.5326 30.7271 87.9742 34.7206C86.3226 36.6027 84.2743 38.1 81.9749 39.1059C79.6754 40.1118 77.1814 40.6018 74.6701 40.5408ZM60.5738 31.984H74.6701C76.0877 32.0231 77.497 31.757 78.8016 31.2041C80.1061 30.6511 81.2751 29.8243 82.2283 28.7802C84.2411 26.5508 85.3048 23.6313 85.1953 20.6373C85.309 17.6265 84.2457 14.6889 82.2283 12.4409C81.2751 11.3968 80.1061 10.57 78.8016 10.0171C77.497 9.46408 76.0877 9.19802 74.6701 9.23708H60.5738V31.984Z" fill="#274F9A"/>
<path d="M101.962 41.0882C101.405 41.0976 100.853 40.9895 100.341 40.7709C99.8299 40.5522 99.371 40.2282 98.9948 39.8201C98.5843 39.3902 98.2646 38.8828 98.0547 38.3279C97.8449 37.773 97.7491 37.1819 97.7731 36.5896C97.7508 36.0095 97.8476 35.4309 98.0577 34.8892C98.2677 34.3476 98.5866 33.8542 98.9948 33.4392C99.3769 33.0405 99.8376 32.7245 100.348 32.5109C100.859 32.2973 101.408 32.1907 101.962 32.1977C102.523 32.1765 103.083 32.2765 103.602 32.4908C104.121 32.7051 104.588 33.0286 104.969 33.4392C105.763 34.294 106.183 35.4271 106.137 36.5896C106.194 37.7858 105.774 38.9561 104.969 39.8468C104.588 40.2573 104.121 40.5808 103.602 40.7951C103.083 41.0094 102.523 41.1094 101.962 41.0882ZM105.613 27.7391H98.0819V0.626953H105.667L105.613 27.7391Z" fill="#274F9A"/>
<path d="M140.036 40.5416H111.709V31.9848H140.036C141.255 32.0651 142.458 31.6727 143.392 30.8902C143.795 30.5003 144.108 30.0294 144.312 29.509C144.516 28.9886 144.605 28.4309 144.574 27.8733C144.614 27.2988 144.53 26.7223 144.326 26.1833C144.122 25.6442 143.804 25.1552 143.392 24.7496C142.458 23.9671 141.255 23.5748 140.036 23.655H123.067C121.476 23.7374 119.885 23.4983 118.39 22.9522C116.895 22.4062 115.527 21.5644 114.368 20.4779C113.29 19.3908 112.448 18.0954 111.894 16.6718C111.339 15.2482 111.085 13.7267 111.146 12.2014C111.085 10.6767 111.334 9.15547 111.879 7.7288C112.423 6.30213 113.251 4.99929 114.314 3.89823C115.49 2.79166 116.882 1.93648 118.404 1.38547C119.925 0.834447 121.544 0.599267 123.161 0.694433H150.293V9.23789H123.161C122.667 9.21214 122.173 9.28905 121.711 9.46374C121.249 9.63842 120.828 9.90703 120.476 10.2524C119.794 11.0344 119.442 12.0486 119.496 13.0824C119.446 14.1117 119.797 15.1206 120.476 15.8991C120.828 16.2445 121.249 16.5131 121.711 16.6878C122.173 16.8625 122.667 16.9394 123.161 16.9137H140.036C148.091 16.9137 152.119 20.8027 152.119 28.5808C152.27 31.7641 151.151 34.8781 149.004 37.2444C146.955 39.4515 143.965 40.5505 140.036 40.5416Z" fill="#274F9A"/>
<path d="M184.311 40.542H155.985V31.9852H184.311C185.526 32.0661 186.725 31.6735 187.654 30.8905C188.058 30.5013 188.374 30.0308 188.58 29.5105C188.786 28.9902 188.878 28.4321 188.849 27.8736C188.888 27.2981 188.801 26.721 188.595 26.1819C188.389 25.6428 188.068 25.1543 187.654 24.7499C186.725 23.967 185.526 23.5744 184.311 23.6553H167.329C165.74 23.7358 164.152 23.4959 162.659 22.9499C161.166 22.4039 159.8 21.5631 158.643 20.4782C157.561 19.3936 156.715 18.099 156.158 16.675C155.602 15.251 155.346 13.7283 155.407 12.2017C155.346 10.6758 155.597 9.15338 156.144 7.72633C156.69 6.29928 157.522 4.99717 158.589 3.89855C159.765 2.79132 161.157 1.93572 162.679 1.38466C164.2 0.833599 165.82 0.598791 167.436 0.694753H194.595V9.23821H167.436C166.942 9.21079 166.448 9.28694 165.985 9.46172C165.523 9.63649 165.102 9.906 164.751 10.2527C164.408 10.637 164.145 11.0848 163.977 11.5705C163.809 12.0562 163.739 12.5701 163.771 13.0828C163.74 13.5933 163.811 14.1049 163.979 14.5883C164.147 15.0716 164.409 15.5172 164.751 15.8994C165.102 16.2462 165.523 16.5157 165.985 16.6905C166.448 16.8652 166.942 16.9414 167.436 16.914H184.311C192.366 16.914 196.394 20.803 196.394 28.5811C196.537 31.7679 195.408 34.8818 193.252 37.2447C191.212 39.4518 188.232 40.5509 184.311 40.542Z" fill="#274F9A"/>
<path d="M205.456 41.0882C204.9 41.0918 204.35 40.981 203.839 40.7628C203.328 40.5445 202.869 40.2236 202.489 39.8201C202.083 39.3874 201.768 38.8792 201.56 38.3248C201.353 37.7704 201.258 37.1807 201.281 36.5896C201.259 36.0107 201.355 35.4333 201.562 34.8921C201.77 34.3508 202.085 33.8567 202.489 33.4392C202.871 33.0405 203.332 32.7245 203.842 32.5109C204.353 32.2973 204.902 32.1907 205.456 32.1977C206.02 32.1755 206.582 32.2749 207.103 32.4892C207.624 32.7035 208.093 33.0276 208.476 33.4392C209.27 34.294 209.69 35.4271 209.644 36.5896C209.701 37.7858 209.282 38.9561 208.476 39.8468C208.093 40.2583 207.624 40.5824 207.103 40.7967C206.582 41.011 206.02 41.1105 205.456 41.0882ZM209.121 27.7391H201.536V0.626953H209.121V27.7391Z" fill="#274F9A"/>
<path d="M263.063 40.5414H253.41L248.148 31.1035H232.185L235.85 24.4289H244.308L237.555 12.2011L221.768 40.5414H212.639L233.944 2.88342C234.188 2.05157 234.697 1.32085 235.394 0.800949C236.091 0.281045 236.939 0 237.811 0C238.682 0 239.53 0.281045 240.227 0.800949C240.924 1.32085 241.433 2.05157 241.677 2.88342L263.063 40.5414Z" fill="#274F9A"/>
<path d="M3.70992 61.0703V60.0757L4.99655 59.8547V56.8868L1.46029 50.7299L0.513074 50.5799V49.5774H4.47559V50.5799L3.16527 50.7299L5.60435 55.2449L5.77011 55.5528L5.77801 55.537L5.93588 55.2449L8.49335 50.7299L7.13568 50.5799V49.5774H11.0193V50.5799L10.0168 50.7299L6.54367 56.7684V59.8547L7.8303 60.0757V61.0703H3.70992ZM17.0357 61.2413C16.2704 61.2413 15.5838 61.0947 14.9759 60.8016C14.368 60.5086 13.8497 60.096 13.4209 59.5641C12.9975 59.0268 12.6719 58.3918 12.4439 57.659C12.2214 56.9263 12.1101 56.1176 12.1101 55.2329V55.0619C12.1101 54.1826 12.2214 53.3766 12.4439 52.6439C12.6719 51.9057 12.9975 51.268 13.4209 50.7306C13.8497 50.1933 14.368 49.7781 14.9759 49.485C15.5838 49.1919 16.2704 49.0454 17.0357 49.0454C17.8444 49.0454 18.5555 49.1919 19.1688 49.485C19.7821 49.7781 20.295 50.1933 20.7075 50.7306C21.1255 51.268 21.4403 51.9057 21.6519 52.6439C21.8636 53.3766 21.9695 54.1826 21.9695 55.0619V55.2329C21.9695 56.1176 21.8636 56.9263 21.6519 57.659C21.4403 58.3918 21.1255 59.0268 20.7075 59.5641C20.295 60.096 19.7821 60.5086 19.1688 60.8016C18.5555 61.0947 17.8444 61.2413 17.0357 61.2413ZM17.0357 59.9061C17.8227 59.9061 18.4578 59.7107 18.9408 59.3199C19.4293 58.9291 19.7875 58.3836 20.0155 57.6835C20.2435 56.9779 20.3574 56.161 20.3574 55.2329V55.0456C20.3574 54.1229 20.2407 53.3142 20.0074 52.6195C19.7794 51.9193 19.4212 51.3738 18.9327 50.983C18.4442 50.5868 17.8119 50.3887 17.0357 50.3887C16.3247 50.3887 15.7222 50.5868 15.2283 50.983C14.7344 51.3792 14.3599 51.9274 14.1048 52.6276C13.8497 53.3223 13.7221 54.1283 13.7221 55.0456V55.2329C13.7221 56.1556 13.8497 56.9697 14.1048 57.6753C14.3599 58.3755 14.7344 58.9237 15.2283 59.3199C15.7222 59.7107 16.3247 59.9061 17.0357 59.9061ZM28.6943 61.2413C27.8802 61.2413 27.1529 61.0812 26.5124 60.7609C25.8719 60.4407 25.3672 59.9848 24.9981 59.3932C24.629 58.7961 24.4445 58.0824 24.4445 57.252V50.4783L23.1174 50.2503V49.2163H27.3754V50.2503L26.0483 50.4783V57.252C26.0483 57.8436 26.1596 58.3402 26.3821 58.7419C26.6101 59.1435 26.9249 59.4474 27.3265 59.6537C27.7282 59.8545 28.1923 59.9549 28.7187 59.9549C29.2506 59.9549 29.7201 59.8545 30.1272 59.6537C30.5397 59.4529 30.8599 59.1516 31.0879 58.75C31.3213 58.3483 31.438 57.849 31.438 57.252V50.4783L30.1109 50.2503V49.2163H34.3689V50.2503L33.0419 50.4783V57.252C33.0419 58.1095 32.86 58.8368 32.4964 59.4339C32.1382 60.0255 31.6334 60.476 30.9821 60.7854C30.3308 61.0893 29.5682 61.2413 28.6943 61.2413ZM35.5983 61.0703V60.0445L36.9253 59.8165V50.4783L35.5983 50.2503V49.2245H40.8821C41.7451 49.2245 42.4724 49.3547 43.064 49.6153C43.6611 49.8704 44.1143 50.2422 44.4236 50.7306C44.733 51.2191 44.8877 51.8162 44.8877 52.5218C44.8877 53.2165 44.7357 53.8 44.4318 54.2722C44.1333 54.7444 43.7072 55.1026 43.1536 55.3469C42.6 55.5857 41.9432 55.7132 41.1833 55.7295L38.5292 55.7784V59.8165L39.8563 60.0445V61.0703H35.5983ZM43.4222 61.0703L40.7844 55.1515L42.3883 55.1352L44.5783 59.8735L45.4006 60.0201V61.0703H43.4222ZM38.5292 54.5164H40.7193C41.6148 54.5164 42.2662 54.3455 42.6732 54.0035C43.0803 53.6616 43.2838 53.1622 43.2838 52.5055C43.2838 51.8813 43.0884 51.3874 42.6976 51.0237C42.3069 50.6601 41.7017 50.4783 40.8821 50.4783H38.5292V54.5164ZM51.0345 61.0703V60.0445L52.3616 59.8165V50.4783L51.0345 50.2503V49.2163H52.3616H56.4812C57.3279 49.2163 58.0498 49.3656 58.6468 49.6641C59.2438 49.9572 59.6998 50.3697 60.0146 50.9016C60.3294 51.4335 60.4868 52.055 60.4868 52.766C60.4868 53.4825 60.3294 54.1066 60.0146 54.6385C59.6998 55.1705 59.2438 55.583 58.6468 55.8761C58.0498 56.1691 57.3279 56.3157 56.4812 56.3157H53.9655V59.8165L55.2925 60.0445V61.0703H51.0345ZM53.9655 55.0619H56.4812C57.2845 55.0619 57.8842 54.8475 58.2804 54.4187C58.6821 53.9845 58.8829 53.439 58.8829 52.7823C58.8829 52.1255 58.6821 51.5774 58.2804 51.1377C57.8842 50.6981 57.2845 50.4783 56.4812 50.4783H53.9655V55.0619ZM61.6022 61.0703V60.0445L62.9292 59.8165V50.4783L61.6022 50.2503V49.2245H66.886C67.749 49.2245 68.4763 49.3547 69.0679 49.6153C69.6649 49.8704 70.1181 50.2422 70.4275 50.7306C70.7369 51.2191 70.8916 51.8162 70.8916 52.5218C70.8916 53.2165 70.7396 53.8 70.4357 54.2722C70.1371 54.7444 69.7111 55.1026 69.1574 55.3469C68.6038 55.5857 67.9471 55.7132 67.1872 55.7295L64.5331 55.7784V59.8165L65.8601 60.0445V61.0703H61.6022ZM69.4261 61.0703L66.7883 55.1515L68.3921 55.1352L70.5822 59.8735L71.4045 60.0201V61.0703H69.4261ZM64.5331 54.5164H66.7231C67.6187 54.5164 68.27 54.3455 68.6771 54.0035C69.0842 53.6616 69.2877 53.1622 69.2877 52.5055C69.2877 51.8813 69.0923 51.3874 68.7015 51.0237C68.3107 50.6601 67.7055 50.4783 66.886 50.4783H64.5331V54.5164ZM77.7223 61.2413C76.957 61.2413 76.2704 61.0947 75.6625 60.8016C75.0546 60.5086 74.5362 60.096 74.1075 59.5641C73.6841 59.0268 73.3584 58.3918 73.1305 57.659C72.9079 56.9263 72.7967 56.1176 72.7967 55.2329V55.0619C72.7967 54.1826 72.9079 53.3766 73.1305 52.6439C73.3584 51.9057 73.6841 51.268 74.1075 50.7306C74.5362 50.1933 75.0546 49.7781 75.6625 49.485C76.2704 49.1919 76.957 49.0454 77.7223 49.0454C78.531 49.0454 79.242 49.1919 79.8553 49.485C80.4687 49.7781 80.9816 50.1933 81.3941 50.7306C81.812 51.268 82.1268 51.9057 82.3385 52.6439C82.5502 53.3766 82.656 54.1826 82.656 55.0619V55.2329C82.656 56.1176 82.5502 56.9263 82.3385 57.659C82.1268 58.3918 81.812 59.0268 81.3941 59.5641C80.9816 60.096 80.4687 60.5086 79.8553 60.8016C79.242 61.0947 78.531 61.2413 77.7223 61.2413ZM77.7223 59.9061C78.5093 59.9061 79.1443 59.7107 79.6274 59.3199C80.1159 58.9291 80.4741 58.3836 80.7021 57.6835C80.93 56.9779 81.044 56.161 81.044 55.2329V55.0456C81.044 54.1229 80.9273 53.3142 80.6939 52.6195C80.4659 51.9193 80.1077 51.3738 79.6192 50.983C79.1307 50.5868 78.4984 50.3887 77.7223 50.3887C77.0112 50.3887 76.4088 50.5868 75.9149 50.983C75.4209 51.3792 75.0464 51.9274 74.7913 52.6276C74.5362 53.3223 74.4087 54.1283 74.4087 55.0456V55.2329C74.4087 56.1556 74.5362 56.9697 74.7913 57.6753C75.0464 58.3755 75.4209 58.9237 75.9149 59.3199C76.4088 59.7107 77.0112 59.9061 77.7223 59.9061ZM83.8935 61.0703V60.0445L85.2206 59.8165V50.4783L83.8935 50.2503V49.2163H85.2206H89.3402C90.1869 49.2163 90.9088 49.3656 91.5058 49.6641C92.1028 49.9572 92.5588 50.3697 92.8736 50.9016C93.1884 51.4335 93.3458 52.055 93.3458 52.766C93.3458 53.4825 93.1884 54.1066 92.8736 54.6385C92.5588 55.1705 92.1028 55.583 91.5058 55.8761C90.9088 56.1691 90.1869 56.3157 89.3402 56.3157H86.8244V59.8165L88.1515 60.0445V61.0703H83.8935ZM86.8244 55.0619H89.3402C90.1435 55.0619 90.7432 54.8475 91.1394 54.4187C91.5411 53.9845 91.7419 53.439 91.7419 52.7823C91.7419 52.1255 91.5411 51.5774 91.1394 51.1377C90.7432 50.6981 90.1435 50.4783 89.3402 50.4783H86.8244V55.0619ZM94.4611 61.0703V60.0445L95.7882 59.8165V50.4783L94.4611 50.2503V49.2163H103.238V52.0658H101.951L101.772 50.4538H97.3921V54.3129H101.764V55.5748H97.3921V59.8654H102.033L102.212 58.2289H103.49V61.0703H94.4611ZM105.094 61.0703V60.0445L106.421 59.8165V50.4783L105.094 50.2503V49.2245H110.378C111.241 49.2245 111.968 49.3547 112.56 49.6153C113.157 49.8704 113.61 50.2422 113.919 50.7306C114.229 51.2191 114.383 51.8162 114.383 52.5218C114.383 53.2165 114.231 53.8 113.927 54.2722C113.629 54.7444 113.203 55.1026 112.649 55.3469C112.096 55.5857 111.439 55.7132 110.679 55.7295L108.025 55.7784V59.8165L109.352 60.0445V61.0703H105.094ZM112.918 61.0703L110.28 55.1515L111.884 55.1352L114.074 59.8735L114.896 60.0201V61.0703H112.918ZM108.025 54.5164H110.215C111.11 54.5164 111.762 54.3455 112.169 54.0035C112.576 53.6616 112.779 53.1622 112.779 52.5055C112.779 51.8813 112.584 51.3874 112.193 51.0237C111.802 50.6601 111.197 50.4783 110.378 50.4783H108.025V54.5164ZM118.649 61.0703V60.0445L119.977 59.8165V50.4294H117.29L117.054 52.074H115.849V49.2163H125.7V52.074H124.511L124.267 50.4294H121.58V59.8165L122.907 60.0445V61.0703H118.649ZM130.471 61.0703V60.0445L131.798 59.8165V56.7553L128.151 50.405L127.174 50.2503V49.2163H131.261V50.2503L129.909 50.405L132.425 55.0619L132.596 55.3794L132.604 55.3631L132.767 55.0619L135.405 50.405L134.004 50.2503V49.2163H138.01V50.2503L136.976 50.405L133.394 56.6332V59.8165L134.721 60.0445V61.0703H130.471ZM137.912 63.6023L137.008 62.9998C137.264 62.6091 137.456 62.2101 137.587 61.803C137.717 61.396 137.782 60.9645 137.782 60.5086V59.271H139.386V60.4841C139.386 61.016 139.253 61.5724 138.987 62.1531C138.721 62.7339 138.363 63.2169 137.912 63.6023ZM149.758 61.2413C148.993 61.2413 148.306 61.0947 147.698 60.8016C147.09 60.5086 146.572 60.096 146.143 59.5641C145.72 59.0268 145.394 58.3918 145.166 57.659C144.944 56.9263 144.832 56.1176 144.832 55.2329V55.0619C144.832 54.1826 144.944 53.3766 145.166 52.6439C145.394 51.9057 145.72 51.268 146.143 50.7306C146.572 50.1933 147.09 49.7781 147.698 49.485C148.306 49.1919 148.993 49.0454 149.758 49.0454C150.567 49.0454 151.278 49.1919 151.891 49.485C152.504 49.7781 153.017 50.1933 153.43 50.7306C153.848 51.268 154.163 51.9057 154.374 52.6439C154.586 53.3766 154.692 54.1826 154.692 55.0619V55.2329C154.692 56.1176 154.586 56.9263 154.374 57.659C154.163 58.3918 153.848 59.0268 153.43 59.5641C153.017 60.096 152.504 60.5086 151.891 60.8016C151.278 61.0947 150.567 61.2413 149.758 61.2413ZM149.758 59.9061C150.545 59.9061 151.18 59.7107 151.663 59.3199C152.152 58.9291 152.51 58.3836 152.738 57.6835C152.966 56.9779 153.08 56.161 153.08 55.2329V55.0456C153.08 54.1229 152.963 53.3142 152.73 52.6195C152.502 51.9193 152.143 51.3738 151.655 50.983C151.167 50.5868 150.534 50.3887 149.758 50.3887C149.047 50.3887 148.445 50.5868 147.951 50.983C147.457 51.3792 147.082 51.9274 146.827 52.6276C146.572 53.3223 146.444 54.1283 146.444 55.0456V55.2329C146.444 56.1556 146.572 56.9697 146.827 57.6753C147.082 58.3755 147.457 58.9237 147.951 59.3199C148.445 59.7107 149.047 59.9061 149.758 59.9061ZM161.417 61.2413C160.602 61.2413 159.875 61.0812 159.235 60.7609C158.594 60.4407 158.089 59.9848 157.72 59.3932C157.351 58.7961 157.167 58.0824 157.167 57.252V50.4783L155.84 50.2503V49.2163H160.098V50.2503L158.771 50.4783V57.252C158.771 57.8436 158.882 58.3402 159.104 58.7419C159.332 59.1435 159.647 59.4474 160.049 59.6537C160.451 59.8545 160.915 59.9549 161.441 59.9549C161.973 59.9549 162.442 59.8545 162.85 59.6537C163.262 59.4529 163.582 59.1516 163.81 58.75C164.044 58.3483 164.16 57.849 164.16 57.252V50.4783L162.833 50.2503V49.2163H167.091V50.2503L165.764 50.4783V57.252C165.764 58.1095 165.582 58.8368 165.219 59.4339C164.86 60.0255 164.356 60.476 163.704 60.7854C163.053 61.0893 162.29 61.2413 161.417 61.2413ZM168.321 61.0703V60.0445L169.648 59.8165V50.4783L168.321 50.2503V49.2245H173.604C174.467 49.2245 175.195 49.3547 175.786 49.6153C176.383 49.8704 176.837 50.2422 177.146 50.7306C177.455 51.2191 177.61 51.8162 177.61 52.5218C177.61 53.2165 177.458 53.8 177.154 54.2722C176.856 54.7444 176.43 55.1026 175.876 55.3469C175.322 55.5857 174.666 55.7132 173.906 55.7295L171.252 55.7784V59.8165L172.579 60.0445V61.0703H168.321ZM176.145 61.0703L173.507 55.1515L175.111 55.1352L177.301 59.8735L178.123 60.0201V61.0703H176.145ZM171.252 54.5164H173.442C174.337 54.5164 174.988 54.3455 175.396 54.0035C175.803 53.6616 176.006 53.1622 176.006 52.5055C176.006 51.8813 175.811 51.3874 175.42 51.0237C175.029 50.6601 174.424 50.4783 173.604 50.4783H171.252V54.5164ZM183.757 61.0703V60.0445L185.084 59.8165V50.4783L183.757 50.2503V49.2163H185.084H189.203C190.05 49.2163 190.772 49.3656 191.369 49.6641C191.966 49.9572 192.422 50.3697 192.737 50.9016C193.052 51.4335 193.209 52.055 193.209 52.766C193.209 53.4825 193.052 54.1066 192.737 54.6385C192.422 55.1705 191.966 55.583 191.369 55.8761C190.772 56.1691 190.05 56.3157 189.203 56.3157H186.688V59.8165L188.015 60.0445V61.0703H183.757ZM186.688 55.0619H189.203C190.007 55.0619 190.607 54.8475 191.003 54.4187C191.404 53.9845 191.605 53.439 191.605 52.7823C191.605 52.1255 191.404 51.5774 191.003 51.1377C190.607 50.6981 190.007 50.4783 189.203 50.4783H186.688V55.0619ZM194.324 61.0703V60.0445L195.652 59.8165V50.4783L194.324 50.2503V49.2245H199.608C200.471 49.2245 201.199 49.3547 201.79 49.6153C202.387 49.8704 202.84 50.2422 203.15 50.7306C203.459 51.2191 203.614 51.8162 203.614 52.5218C203.614 53.2165 203.462 53.8 203.158 54.2722C202.859 54.7444 202.433 55.1026 201.88 55.3469C201.326 55.5857 200.669 55.7132 199.91 55.7295L197.255 55.7784V59.8165L198.582 60.0445V61.0703H194.324ZM202.148 61.0703L199.511 55.1515L201.114 55.1352L203.305 59.8735L204.127 60.0201V61.0703H202.148ZM197.255 54.5164H199.445C200.341 54.5164 200.992 54.3455 201.399 54.0035C201.806 53.6616 202.01 53.1622 202.01 52.5055C202.01 51.8813 201.815 51.3874 201.424 51.0237C201.033 50.6601 200.428 50.4783 199.608 50.4783H197.255V54.5164ZM205.609 61.0703V60.0445L206.936 59.8165V50.4783L205.609 50.2503V49.2163H209.867V50.2503L208.539 50.4783V59.8165L209.867 60.0445V61.0703H205.609ZM216.03 61.2413C215.264 61.2413 214.578 61.0947 213.97 60.8016C213.362 60.5086 212.844 60.096 212.415 59.5641C211.991 59.0268 211.666 58.3918 211.438 57.659C211.215 56.9263 211.104 56.1176 211.104 55.2329V55.0619C211.104 54.1826 211.215 53.3766 211.438 52.6439C211.666 51.9057 211.991 51.268 212.415 50.7306C212.844 50.1933 213.362 49.7781 213.97 49.485C214.578 49.1919 215.264 49.0454 216.03 49.0454C216.838 49.0454 217.549 49.1919 218.163 49.485C218.776 49.7781 219.289 50.1933 219.701 50.7306C220.119 51.268 220.434 51.9057 220.646 52.6439C220.858 53.3766 220.963 54.1826 220.963 55.0619V55.2329C220.963 56.1176 220.858 56.9263 220.646 57.659C220.434 58.3918 220.119 59.0268 219.701 59.5641C219.289 60.096 218.776 60.5086 218.163 60.8016C217.549 61.0947 216.838 61.2413 216.03 61.2413ZM216.03 59.9061C216.817 59.9061 217.452 59.7107 217.935 59.3199C218.423 58.9291 218.781 58.3836 219.009 57.6835C219.237 56.9779 219.351 56.161 219.351 55.2329V55.0456C219.351 54.1229 219.235 53.3142 219.001 52.6195C218.773 51.9193 218.415 51.3738 217.927 50.983C217.438 50.5868 216.806 50.3887 216.03 50.3887C215.319 50.3887 214.716 50.5868 214.222 50.983C213.728 51.3792 213.354 51.9274 213.099 52.6276C212.844 53.3223 212.716 54.1283 212.716 55.0456V55.2329C212.716 56.1556 212.844 56.9697 213.099 57.6753C213.354 58.3755 213.728 58.9237 214.222 59.3199C214.716 59.7107 215.319 59.9061 216.03 59.9061ZM222.201 61.0703V60.0445L223.528 59.8165V50.4783L222.201 50.2503V49.2245H227.485C228.348 49.2245 229.075 49.3547 229.667 49.6153C230.264 49.8704 230.717 50.2422 231.026 50.7306C231.336 51.2191 231.49 51.8162 231.49 52.5218C231.49 53.2165 231.338 53.8 231.034 54.2722C230.736 54.7444 230.31 55.1026 229.756 55.3469C229.203 55.5857 228.546 55.7132 227.786 55.7295L225.132 55.7784V59.8165L226.459 60.0445V61.0703H222.201ZM230.025 61.0703L227.387 55.1515L228.991 55.1352L231.181 59.8735L232.003 60.0201V61.0703H230.025ZM225.132 54.5164H227.322C228.217 54.5164 228.869 54.3455 229.276 54.0035C229.683 53.6616 229.886 53.1622 229.886 52.5055C229.886 51.8813 229.691 51.3874 229.3 51.0237C228.909 50.6601 228.304 50.4783 227.485 50.4783H225.132V54.5164ZM233.485 61.0703V60.0445L234.812 59.8165V50.4783L233.485 50.2503V49.2163H237.743V50.2503L236.416 50.4783V59.8165L237.743 60.0445V61.0703H233.485ZM241.993 61.0703V60.0445L243.32 59.8165V50.4294H240.633L240.397 52.074H239.192V49.2163H249.043V52.074H247.855L247.61 50.4294H244.924V59.8165L246.251 60.0445V61.0703H241.993ZM253.814 61.0703V60.0445L255.141 59.8165V56.7553L251.494 50.405L250.517 50.2503V49.2163H254.604V50.2503L253.252 50.405L255.768 55.0619L255.939 55.3794L255.947 55.3631L256.11 55.0619L258.748 50.405L257.348 50.2503V49.2163H261.353V50.2503L260.319 50.405L256.737 56.6332V59.8165L258.064 60.0445V61.0703H253.814Z" fill="#274F9A"/>
</svg>
