<svg width="233" height="58" viewBox="0 0 233 58" fill="none" xmlns="http://www.w3.org/2000/svg">
<g clip-path="url(#clip0_202_481)">
<path d="M44.6178 38.5489H36.0737L31.4069 29.5491H17.371L20.6119 23.2252H28.1071L22.026 11.5116L8.09625 38.5489H0L18.8795 2.61284C19.7987 0.870947 20.9418 0 22.3089 0C23.6759 0 24.8191 0.870947 25.7383 2.61284L44.6178 38.5489Z" fill="#274F9A"/>
<path d="M66.1489 38.5489H46.5859V0.517517H66.1489C70.969 0.517517 74.9051 2.24679 77.9928 5.71795C81.0687 9.18912 82.6125 13.6575 82.6125 19.1356C82.6125 24.6137 81.0569 29.2966 77.9457 32.995C74.8344 36.6934 70.91 38.5362 66.1489 38.5362V38.5489ZM53.6687 30.3948H66.1489C68.8595 30.3948 71.0986 29.3724 72.8428 27.3402C74.5987 25.2953 75.4708 22.7077 75.4708 19.5774C75.4708 16.447 74.5987 13.7963 72.8428 11.7515C71.0868 9.70664 68.8595 8.69684 66.1489 8.69684H53.6687V30.4074V30.3948Z" fill="#274F9A"/>
<path d="M90.3782 39.079C89.3411 39.079 88.469 38.6751 87.7502 37.8799C87.0313 37.072 86.6777 36.0496 86.6777 34.8C86.6777 33.5504 87.0313 32.5785 87.7502 31.7959C88.469 31.0133 89.3411 30.622 90.3782 30.622C91.4742 30.622 92.3699 31.0133 93.0534 31.7959C93.7369 32.5785 94.0787 33.5883 94.0787 34.8C94.0787 36.0875 93.7369 37.1225 93.0534 37.9177C92.3699 38.7003 91.4742 39.0916 90.3782 39.0916V39.079ZM93.6191 26.3051H86.9016V0.467041H93.6191V26.3051Z" fill="#274F9A"/>
<path d="M124.071 38.5489H98.9696V30.3948H124.071C125.356 30.3948 126.346 30.0414 127.041 29.3471C127.737 28.6529 128.09 27.6936 128.09 26.4692C128.09 25.1817 127.737 24.1846 127.041 23.4903C126.334 22.7961 125.344 22.4427 124.071 22.4427H109.034C105.805 22.4427 103.236 21.4329 101.327 19.4133C99.4174 17.3937 98.4746 14.7556 98.4746 11.5117C98.4746 8.26769 99.4174 5.62961 101.291 3.58478C103.165 1.53994 105.781 0.530151 109.128 0.530151H133.169V8.68423H109.128C108.126 8.68423 107.325 9.01241 106.748 9.65616C106.17 10.2999 105.876 11.1961 105.876 12.3447C105.876 13.4934 106.17 14.3896 106.748 15.0333C107.325 15.677 108.115 16.0052 109.128 16.0052H124.071C131.237 16.0052 134.819 19.7162 134.819 27.1508C134.819 30.5715 133.9 33.3232 132.05 35.4185C130.211 37.5138 127.548 38.5615 124.071 38.5615V38.5489Z" fill="#274F9A"/>
<path d="M163.292 38.5489H138.19V30.3948H163.292C164.577 30.3948 165.567 30.0414 166.262 29.3471C166.957 28.6529 167.311 27.6936 167.311 26.4692C167.311 25.1817 166.957 24.1846 166.262 23.4903C165.555 22.7961 164.565 22.4427 163.292 22.4427H148.255C145.026 22.4427 142.456 21.4329 140.547 19.4133C138.638 17.3937 137.695 14.7556 137.695 11.5117C137.695 8.26769 138.638 5.62961 140.512 3.58478C142.386 1.53994 145.002 0.530151 148.349 0.530151H172.39V8.68423H148.349C147.347 8.68423 146.546 9.01241 145.968 9.65616C145.391 10.2999 145.096 11.1961 145.096 12.3447C145.096 13.4934 145.391 14.3896 145.968 15.0333C146.546 15.677 147.335 16.0052 148.349 16.0052H163.292C170.457 16.0052 174.04 19.7162 174.04 27.1508C174.04 30.5715 173.121 33.3232 171.271 35.4185C169.432 37.5138 166.769 38.5615 163.292 38.5615V38.5489Z" fill="#274F9A"/>
<path d="M182.031 39.079C180.993 39.079 180.121 38.6751 179.402 37.8799C178.684 37.072 178.33 36.0496 178.33 34.8C178.33 33.5504 178.684 32.5785 179.402 31.7959C180.121 31.0133 180.993 30.622 182.031 30.622C183.127 30.622 184.022 31.0133 184.706 31.7959C185.389 32.5785 185.731 33.5883 185.731 34.8C185.731 36.0875 185.389 37.1225 184.706 37.9177C184.022 38.7003 183.127 39.0916 182.031 39.0916V39.079ZM185.283 26.3051H178.566V0.467041H185.283V26.3051Z" fill="#274F9A"/>
<path d="M233 38.5489H224.456L219.789 29.5491H205.753L208.994 23.2252H216.489L210.408 11.5116L196.466 38.5489H188.37L207.25 2.61284C208.169 0.870947 209.312 0 210.679 0C212.046 0 213.189 0.870947 214.108 2.61284L232.988 38.5489H233Z" fill="#274F9A"/>
<path d="M7.58997 55.5386V54.5414L8.72133 54.3142V51.3353L5.62189 45.1503L4.78516 44.9989V43.9891H8.26171V44.9989L7.10679 45.1503L9.25165 49.6818L9.39307 49.9973L9.53449 49.6818L11.7736 45.1503L10.5833 44.9989V43.9891H13.9892V44.9989L13.1053 45.1503L10.053 51.2091V54.3016L11.1844 54.5288V55.526H7.5664L7.58997 55.5386Z" fill="#274F9A"/>
<path d="M18.5734 55.7027C17.9252 55.7027 17.3359 55.5639 16.8174 55.2735C16.2989 54.9832 15.8628 54.5793 15.4975 54.0618C15.1322 53.5443 14.8611 52.9258 14.6608 52.2063C14.4722 51.4994 14.3779 50.7042 14.3779 49.8459V49.6818C14.3779 48.8235 14.4722 48.0409 14.6608 47.3214C14.8493 46.6019 15.1322 45.9834 15.4975 45.4659C15.8628 44.9484 16.2989 44.5445 16.8174 44.2542C17.3359 43.9639 17.9134 43.825 18.5734 43.825C19.2569 43.825 19.8697 43.9639 20.3882 44.2542C20.9068 44.5445 21.3428 44.9484 21.6964 45.4659C22.0499 45.9834 22.321 46.6146 22.4978 47.3214C22.6745 48.0409 22.7688 48.8235 22.7688 49.6818V49.8459C22.7688 50.7042 22.6745 51.4994 22.4978 52.2063C22.321 52.9131 22.0499 53.5316 21.6964 54.0618C21.3428 54.5793 20.9068 54.9832 20.3882 55.2735C19.8697 55.5639 19.2569 55.7027 18.5734 55.7027ZM18.5734 54.4026C19.2451 54.4026 19.7872 54.2133 20.1997 53.8346C20.6122 53.4559 20.9186 52.9258 21.1071 52.2315C21.2957 51.5499 21.4018 50.7547 21.4018 49.8459V49.6692C21.4018 48.773 21.3075 47.9778 21.1071 47.3088C20.9068 46.6272 20.6004 46.097 20.1879 45.7184C19.7754 45.3397 19.2333 45.1377 18.5734 45.1377C17.9723 45.1377 17.4538 45.3271 17.0413 45.7184C16.6171 46.1097 16.2989 46.6398 16.0867 47.3088C15.8746 47.9904 15.7568 48.773 15.7568 49.6692V49.8459C15.7568 50.7421 15.8628 51.5373 16.0867 52.2189C16.2989 52.9005 16.6289 53.4307 17.0413 53.822C17.4656 54.2006 17.9723 54.4026 18.5734 54.4026Z" fill="#274F9A"/>
<path d="M28.4847 55.7027C27.7894 55.7027 27.1766 55.5512 26.6227 55.2356C26.0806 54.9201 25.6445 54.4783 25.3381 53.8977C25.0317 53.317 24.8667 52.6228 24.8667 51.815V45.2261L23.7354 44.9989V43.9891H27.3533V44.9989L26.222 45.2261V51.815C26.222 52.3956 26.3163 52.8753 26.5048 53.2666C26.6934 53.6578 26.9644 53.9482 27.3062 54.1501C27.648 54.3521 28.0369 54.4531 28.4847 54.4531C28.9325 54.4531 29.3332 54.3521 29.6867 54.1627C30.0403 53.9734 30.3113 53.6705 30.4999 53.2792C30.7002 52.8879 30.7945 52.4082 30.7945 51.815V45.2261L29.6632 44.9989V43.9891H33.2812V44.9989L32.1498 45.2261V51.815C32.1498 52.6481 31.9966 53.3549 31.6902 53.9355C31.3838 54.5162 30.9477 54.958 30.3938 55.2483C29.84 55.5512 29.1918 55.6901 28.4493 55.6901L28.4847 55.7027Z" fill="#274F9A"/>
<path d="M34.3536 55.5386V54.5414L35.4849 54.3142V45.2261L34.3536 44.9989V44.0017H38.8436C39.5743 44.0017 40.1989 44.1279 40.7057 44.3804C41.2124 44.6328 41.5895 44.9989 41.8606 45.4659C42.1199 45.9456 42.2495 46.5262 42.2495 47.2078C42.2495 47.8894 42.1199 48.4574 41.8606 48.9118C41.6013 49.3662 41.236 49.7197 40.7646 49.9595C40.2932 50.1993 39.7393 50.3255 39.0911 50.3382L36.8284 50.3886V54.3142L37.9598 54.5414V55.5386H34.3418H34.3536ZM36.852 49.1643H38.714C39.48 49.1643 40.0339 49.0002 40.3757 48.6594C40.7174 48.3186 40.8942 47.8389 40.8942 47.1952C40.8942 46.5514 40.7292 46.1097 40.3993 45.7562C40.0693 45.4028 39.5507 45.2261 38.8554 45.2261H36.852V49.1517V49.1643ZM41.0121 55.5386L38.7729 49.7828H40.14L42.002 54.3773L42.6973 54.5162V55.5386H41.0121Z" fill="#274F9A"/>
<path d="M47.4697 55.5386V54.5414L48.6011 54.3142V45.2261L47.4697 44.9989V43.9891H52.1012C52.8201 43.9891 53.4329 44.1279 53.9397 44.4182C54.4464 44.7086 54.8353 45.1125 55.1064 45.63C55.3774 46.1475 55.5071 46.7534 55.5071 47.4476C55.5071 48.1419 55.3774 48.7477 55.1064 49.2652C54.8353 49.7828 54.4464 50.1867 53.9397 50.4644C53.4329 50.7421 52.8201 50.8935 52.1012 50.8935H49.9563V54.3016L51.0877 54.5288V55.526H47.4697V55.5386ZM49.9681 49.6944H52.113C52.7965 49.6944 53.3033 49.4798 53.645 49.0633C53.9868 48.6467 54.1518 48.1166 54.1518 47.4729C54.1518 46.8291 53.9868 46.299 53.645 45.8698C53.3033 45.4407 52.7965 45.2261 52.113 45.2261H49.9681V49.6818V49.6944Z" fill="#274F9A"/>
<path d="M56.4503 55.5386V54.5414L57.5816 54.3142V45.2261L56.4503 44.9989V44.0017H60.9403C61.671 44.0017 62.2956 44.1279 62.8023 44.3804C63.3091 44.6328 63.6862 44.9989 63.9573 45.4659C64.2283 45.9329 64.3462 46.5262 64.3462 47.2078C64.3462 47.8894 64.2165 48.4574 63.9573 48.9118C63.698 49.3662 63.3327 49.7197 62.8613 49.9595C62.3899 50.1993 61.836 50.3255 61.1878 50.3382L58.9251 50.3886V54.3142L60.0565 54.5414V55.5386H56.4385H56.4503ZM58.9487 49.1643H60.8107C61.5767 49.1643 62.1306 49.0002 62.4724 48.6594C62.8141 48.3186 62.9909 47.8389 62.9909 47.1952C62.9909 46.5514 62.8259 46.1097 62.4959 45.7562C62.166 45.4028 61.6474 45.2261 60.9521 45.2261H58.9487V49.1517V49.1643ZM63.1088 55.5386L60.8696 49.7828H62.2367L64.0987 54.3773L64.794 54.5162V55.5386H63.1088Z" fill="#274F9A"/>
<path d="M70.1564 55.7027C69.5082 55.7027 68.919 55.5639 68.4004 55.2735C67.8819 54.9832 67.4458 54.5793 67.0805 54.0618C66.7152 53.5443 66.4441 52.9258 66.2438 52.2063C66.0552 51.4994 65.9609 50.7042 65.9609 49.8459V49.6818C65.9609 48.8235 66.0552 48.0409 66.2438 47.3214C66.4323 46.6019 66.7152 45.9834 67.0805 45.4659C67.4458 44.9484 67.8819 44.5445 68.4004 44.2542C68.919 43.9639 69.4964 43.825 70.1564 43.825C70.8399 43.825 71.4527 43.9639 71.9713 44.2542C72.4898 44.5445 72.9258 44.9484 73.2794 45.4659C73.6329 45.9834 73.904 46.6146 74.0808 47.3214C74.2575 48.0409 74.3518 48.8235 74.3518 49.6818V49.8459C74.3518 50.7042 74.2575 51.4994 74.0808 52.2063C73.904 52.9131 73.6329 53.5316 73.2794 54.0618C72.9258 54.5919 72.4898 54.9832 71.9713 55.2735C71.4527 55.5639 70.8399 55.7027 70.1564 55.7027ZM70.1564 54.4026C70.8281 54.4026 71.3702 54.2133 71.7827 53.8346C72.1952 53.4559 72.5016 52.9258 72.6901 52.2315C72.8905 51.5499 72.9848 50.7547 72.9848 49.8459V49.6692C72.9848 48.773 72.8905 47.9778 72.6901 47.3088C72.4898 46.6272 72.1834 46.097 71.7709 45.7184C71.3584 45.3397 70.8163 45.1377 70.1564 45.1377C69.5553 45.1377 69.0368 45.3271 68.6243 45.7184C68.2001 46.1097 67.8819 46.6398 67.6697 47.3088C67.4576 47.9904 67.3398 48.773 67.3398 49.6692V49.8459C67.3398 50.7421 67.4458 51.5373 67.6697 52.2189C67.8819 52.9005 68.2001 53.4307 68.6243 53.822C69.0486 54.2006 69.5553 54.4026 70.1564 54.4026Z" fill="#274F9A"/>
<path d="M75.4004 55.5386V54.5414L76.5317 54.3142V45.2261L75.4004 44.9989V43.9891H80.0319C80.7508 43.9891 81.3636 44.1279 81.8703 44.4182C82.3771 44.7086 82.766 45.1125 83.037 45.63C83.3081 46.1475 83.4377 46.7534 83.4377 47.4476C83.4377 48.1419 83.3081 48.7477 83.037 49.2652C82.766 49.7828 82.3771 50.1867 81.8703 50.4644C81.3636 50.7547 80.7508 50.8935 80.0319 50.8935H77.887V54.3016L79.0184 54.5288V55.526H75.4004V55.5386ZM77.887 49.6944H80.0319C80.7154 49.6944 81.2221 49.4798 81.5639 49.0633C81.9057 48.6467 82.0707 48.1166 82.0707 47.4729C82.0707 46.8291 81.9057 46.299 81.5639 45.8698C81.2221 45.4407 80.7154 45.2261 80.0319 45.2261H77.887V49.6818V49.6944Z" fill="#274F9A"/>
<path d="M84.3809 55.5386V54.5414L85.5123 54.3142V45.2261L84.3809 44.9989V43.9891H91.8408V46.766H90.7448L90.5916 45.2008H86.8676V48.9623H90.5916V50.1867H86.8676V54.3647H90.8155L90.9687 52.7743H92.0529V55.5386H84.3691H84.3809Z" fill="#274F9A"/>
<path d="M93.4317 55.5386V54.5414L94.5631 54.3142V45.2261L93.4317 44.9989V44.0017H97.9218C98.6524 44.0017 99.277 44.1279 99.7838 44.3804C100.291 44.6328 100.668 44.9989 100.939 45.4659C101.198 45.9456 101.328 46.5262 101.328 47.2078C101.328 47.8894 101.198 48.4574 100.939 48.9118C100.679 49.3662 100.314 49.7197 99.8427 49.9595C99.3713 50.1993 98.8174 50.3255 98.1693 50.3382L95.9065 50.3886V54.3142L97.0379 54.5414V55.5386H93.4199H93.4317ZM95.9183 49.1643H97.7804C98.5464 49.1643 99.1003 49.0002 99.442 48.6594C99.7838 48.3186 99.9606 47.8389 99.9606 47.1952C99.9606 46.5514 99.7956 46.1097 99.4656 45.7562C99.1356 45.4028 98.6171 45.2261 97.9218 45.2261H95.9183V49.1517V49.1643ZM100.078 55.5386L97.8393 49.7828H99.2063L101.068 54.3773L101.764 54.5162V55.5386H100.078Z" fill="#274F9A"/>
<path d="M104.945 55.5386V54.5414L106.076 54.3142V45.1756H103.79L103.59 46.7786H102.564V44.0017H110.944V46.7786H109.93L109.718 45.1756H107.432V54.3142L108.563 54.5414V55.5386H104.945Z" fill="#274F9A"/>
<path d="M115.01 55.5386V54.5414L116.141 54.3142V51.3353L113.042 45.1503L112.205 44.9989V43.9891H115.682V44.9989L114.527 45.1503L116.672 49.6818L116.813 49.9973L116.954 49.6818L119.194 45.1503L118.003 44.9989V43.9891H121.409V44.9989L120.525 45.1503L117.473 51.2091V54.3016L118.604 54.5288V55.526H114.986L115.01 55.5386Z" fill="#274F9A"/>
<path d="M121.338 58L120.572 57.4193C120.784 57.0407 120.949 56.6494 121.067 56.2581C121.173 55.8668 121.232 55.4376 121.232 54.9958V53.7967H122.599V54.9832C122.599 55.5007 122.481 56.0435 122.258 56.6115C122.034 57.1795 121.727 57.6465 121.338 58.0252V58Z" fill="#274F9A"/>
<path d="M131.402 55.7027C130.754 55.7027 130.165 55.5639 129.647 55.2735C129.128 54.9832 128.692 54.5793 128.327 54.0618C127.961 53.5443 127.69 52.9258 127.49 52.2063C127.301 51.4994 127.207 50.7042 127.207 49.8459V49.6818C127.207 48.8235 127.301 48.0409 127.49 47.3214C127.678 46.6019 127.961 45.9834 128.327 45.4659C128.692 44.9484 129.128 44.5445 129.647 44.2542C130.165 43.9639 130.743 43.825 131.402 43.825C132.086 43.825 132.699 43.9639 133.217 44.2542C133.736 44.5445 134.172 44.9484 134.525 45.4659C134.879 45.9834 135.15 46.6146 135.327 47.3214C135.504 48.0409 135.598 48.8235 135.598 49.6818V49.8459C135.598 50.7042 135.504 51.4994 135.327 52.2063C135.15 52.9131 134.879 53.5316 134.525 54.0618C134.172 54.5793 133.736 54.9832 133.217 55.2735C132.699 55.5639 132.086 55.7027 131.402 55.7027ZM131.402 54.4026C132.074 54.4026 132.616 54.2133 133.029 53.8346C133.441 53.4559 133.748 52.9258 133.936 52.2315C134.125 51.5499 134.231 50.7547 134.231 49.8459V49.6692C134.231 48.773 134.137 47.9778 133.936 47.3088C133.736 46.6272 133.429 46.097 133.017 45.7184C132.605 45.3397 132.062 45.1377 131.402 45.1377C130.801 45.1377 130.283 45.3271 129.87 45.7184C129.446 46.1097 129.128 46.6398 128.916 47.3088C128.704 47.9904 128.586 48.773 128.586 49.6692V49.8459C128.586 50.7421 128.692 51.5373 128.916 52.2189C129.128 52.9005 129.458 53.4307 129.87 53.822C130.295 54.2006 130.801 54.4026 131.402 54.4026Z" fill="#274F9A"/>
<path d="M141.314 55.7027C140.618 55.7027 140.006 55.5512 139.463 55.2356C138.921 54.9201 138.485 54.4783 138.179 53.8977C137.861 53.317 137.708 52.6228 137.708 51.815V45.2261L136.576 44.9989V43.9891H140.194V44.9989L139.063 45.2261V51.815C139.063 52.3956 139.157 52.8753 139.346 53.2666C139.534 53.6578 139.805 53.9482 140.147 54.1501C140.489 54.3521 140.878 54.4531 141.326 54.4531C141.773 54.4531 142.174 54.3521 142.528 54.1627C142.869 53.9734 143.152 53.6705 143.341 53.2792C143.541 52.8879 143.635 52.4082 143.635 51.815V45.2261L142.504 44.9989V43.9891H146.122V44.9989L144.991 45.2261V51.815C144.991 52.6481 144.837 53.3549 144.531 53.9355C144.225 54.5162 143.789 54.958 143.235 55.2483C142.681 55.5512 142.033 55.6901 141.29 55.6901L141.314 55.7027Z" fill="#274F9A"/>
<path d="M147.183 55.5386V54.5414L148.314 54.3142V45.2261L147.183 44.9989V44.0017H151.673C152.403 44.0017 153.028 44.1279 153.535 44.3804C154.042 44.6328 154.419 44.9989 154.69 45.4659C154.961 45.9329 155.079 46.5262 155.079 47.2078C155.079 47.8894 154.949 48.4574 154.69 48.9118C154.43 49.3662 154.065 49.7197 153.594 49.9595C153.122 50.1993 152.568 50.3255 151.92 50.3382L149.658 50.3886V54.3142L150.789 54.5414V55.5386H147.171H147.183ZM149.681 49.1643H151.543C152.309 49.1643 152.863 49.0002 153.205 48.6594C153.547 48.3186 153.723 47.8389 153.723 47.1952C153.723 46.5514 153.558 46.1097 153.228 45.7562C152.898 45.4028 152.38 45.2261 151.685 45.2261H149.681V49.1517V49.1643ZM153.841 55.5386L151.602 49.7828H152.969L154.831 54.3773L155.526 54.5162V55.5386H153.841Z" fill="#274F9A"/>
<path d="M160.299 55.5386V54.5414L161.43 54.3142V45.2261L160.299 44.9989V43.9891H164.93C165.649 43.9891 166.262 44.1279 166.769 44.4182C167.275 44.7086 167.664 45.1125 167.935 45.63C168.207 46.1475 168.336 46.7534 168.336 47.4476C168.336 48.1419 168.207 48.7477 167.935 49.2652C167.664 49.7828 167.275 50.1867 166.769 50.4644C166.262 50.7547 165.649 50.8935 164.93 50.8935H162.785V54.3016L163.917 54.5288V55.526H160.299V55.5386ZM162.797 49.6944H164.942C165.626 49.6944 166.132 49.4798 166.474 49.0633C166.816 48.6467 166.981 48.1166 166.981 47.4729C166.981 46.8291 166.816 46.299 166.474 45.8698C166.132 45.4407 165.626 45.2261 164.942 45.2261H162.797V49.6818V49.6944Z" fill="#274F9A"/>
<path d="M169.291 55.5386V54.5414L170.422 54.3142V45.2261L169.291 44.9989V44.0017H173.781C174.512 44.0017 175.136 44.1279 175.643 44.3804C176.15 44.6328 176.527 44.9989 176.798 45.4659C177.069 45.9329 177.187 46.5262 177.187 47.2078C177.187 47.8894 177.057 48.4574 176.798 48.9118C176.539 49.3662 176.173 49.7197 175.702 49.9595C175.231 50.1993 174.677 50.3255 174.029 50.3382L171.766 50.3886V54.3142L172.897 54.5414V55.5386H169.279H169.291ZM171.778 49.1643H173.64C174.406 49.1643 174.96 49.0002 175.301 48.6594C175.643 48.3186 175.82 47.8389 175.82 47.1952C175.82 46.5514 175.655 46.1097 175.325 45.7562C174.995 45.4028 174.476 45.2261 173.781 45.2261H171.778V49.1517V49.1643ZM175.938 55.5386L173.699 49.7828H175.066L176.928 54.3773L177.623 54.5162V55.5386H175.938Z" fill="#274F9A"/>
<path d="M178.872 55.5386V54.5414L180.003 54.3142V45.2261L178.872 44.9989V43.9891H182.49V44.9989L181.359 45.2261V54.3142L182.49 54.5414V55.5386H178.872Z" fill="#274F9A"/>
<path d="M187.734 55.7027C187.086 55.7027 186.497 55.5639 185.979 55.2735C185.46 54.9832 185.024 54.5793 184.659 54.0618C184.293 53.5443 184.022 52.9258 183.822 52.2063C183.633 51.4994 183.539 50.7042 183.539 49.8459V49.6818C183.539 48.8235 183.633 48.0409 183.822 47.3214C184.01 46.6019 184.293 45.9834 184.659 45.4659C185.024 44.9484 185.46 44.5445 185.979 44.2542C186.497 43.9639 187.075 43.825 187.734 43.825C188.418 43.825 189.031 43.9639 189.549 44.2542C190.068 44.5445 190.504 44.9484 190.857 45.4659C191.211 45.9834 191.482 46.6146 191.659 47.3214C191.836 48.0409 191.93 48.8235 191.93 49.6818V49.8459C191.93 50.7042 191.836 51.4994 191.659 52.2063C191.482 52.9131 191.211 53.5316 190.857 54.0618C190.504 54.5793 190.068 54.9832 189.549 55.2735C189.031 55.5639 188.418 55.7027 187.734 55.7027ZM187.734 54.4026C188.406 54.4026 188.948 54.2133 189.361 53.8346C189.773 53.4559 190.08 52.9258 190.268 52.2315C190.457 51.5499 190.563 50.7547 190.563 49.8459V49.6692C190.563 48.773 190.469 47.9778 190.268 47.3088C190.068 46.6272 189.762 46.097 189.349 45.7184C188.937 45.3397 188.394 45.1377 187.734 45.1377C187.133 45.1377 186.615 45.3271 186.202 45.7184C185.778 46.1097 185.46 46.6398 185.248 47.3088C185.036 47.9904 184.918 48.773 184.918 49.6692V49.8459C184.918 50.7421 185.024 51.5373 185.248 52.2189C185.46 52.9005 185.79 53.4307 186.202 53.822C186.627 54.2006 187.133 54.4026 187.734 54.4026Z" fill="#274F9A"/>
<path d="M192.979 55.5386V54.5414L194.11 54.3142V45.2261L192.979 44.9989V44.0017H197.469C198.199 44.0017 198.824 44.1279 199.331 44.3804C199.837 44.6328 200.215 44.9989 200.486 45.4659C200.745 45.9456 200.874 46.5262 200.874 47.2078C200.874 47.8894 200.745 48.4574 200.486 48.9118C200.226 49.3662 199.861 49.7197 199.39 49.9595C198.918 50.1993 198.364 50.3255 197.716 50.3382L195.453 50.3886V54.3142L196.585 54.5414V55.5386H192.967H192.979ZM195.465 49.1643H197.327C198.093 49.1643 198.647 49.0002 198.989 48.6594C199.331 48.3186 199.507 47.8389 199.507 47.1952C199.507 46.5514 199.342 46.1097 199.012 45.7562C198.682 45.4028 198.164 45.2261 197.469 45.2261H195.465V49.1517V49.1643ZM199.637 55.5386L197.398 49.7828H198.765L200.627 54.3773L201.322 54.5162V55.5386H199.637Z" fill="#274F9A"/>
<path d="M202.571 55.5386V54.5414L203.703 54.3142V45.2261L202.571 44.9989V43.9891H206.189V44.9989L205.058 45.2261V54.3142L206.189 54.5414V55.5386H202.571Z" fill="#274F9A"/>
<path d="M209.796 55.5386V54.5414L210.927 54.3142V45.1756H208.641L208.44 46.7786H207.415V44.0017H215.794V46.7786H214.781L214.569 45.1756H212.282V54.3142L213.414 54.5414V55.5386H209.796Z" fill="#274F9A"/>
<path d="M219.86 55.5386V54.5414L220.992 54.3142V51.3353L217.892 45.1503L217.056 44.9989V43.9891H220.532V44.9989L219.377 45.1503L221.522 49.6818L221.664 49.9973L221.805 49.6818L224.044 45.1503L222.854 44.9989V43.9891H226.26V44.9989L225.376 45.1503L222.335 51.2091V54.3016L223.467 54.5288V55.526H219.849L219.86 55.5386Z" fill="#274F9A"/>
</g>
<defs>
<clipPath id="clip0_202_481">
<rect width="233" height="58" fill="white"/>
</clipPath>
</defs>
</svg>
