<svg width="200" height="50" viewBox="0 0 200 50" fill="none" xmlns="http://www.w3.org/2000/svg">
<g clip-path="url(#clip0_106_366)">
<path d="M39.5608 31.7412H32.3808L28.4608 24.6712H16.6608L19.3908 19.6712H25.6908L20.5808 10.4713L8.86078 31.7412H2.05078L17.9308 3.53125C18.1773 2.96301 18.5775 2.4748 19.0862 2.12149C19.595 1.76818 20.1922 1.56378 20.8108 1.53125C21.4345 1.56931 22.0351 1.7816 22.5442 2.14399C23.0533 2.50638 23.4506 3.00434 23.6908 3.58125L39.5608 31.7412Z" fill="white"/>
<path d="M57.6707 31.7389H41.2207V1.88886H57.6707C59.5254 1.83257 61.3709 2.16971 63.0859 2.87811C64.8009 3.58651 66.3464 4.6501 67.6207 5.99886C70.252 8.84787 71.6471 12.6234 71.5007 16.4989C71.6341 20.4935 70.2312 24.3873 67.5807 27.3789C66.3504 28.7888 64.8247 29.9104 63.1119 30.6639C61.3991 31.4175 59.5414 31.7845 57.6707 31.7389ZM47.1707 25.3289H57.6707C58.7266 25.3581 59.7764 25.1588 60.7482 24.7446C61.7199 24.3303 62.5906 23.711 63.3007 22.9289C64.8 21.2587 65.5923 19.0718 65.5107 16.8289C65.5954 14.5735 64.8034 12.3729 63.3007 10.6889C62.5906 9.90677 61.7199 9.28739 60.7482 8.87315C59.7764 8.45891 58.7266 8.2596 57.6707 8.28886H47.1707V25.3289Z" fill="white"/>
<path d="M77.9996 32.1498C77.585 32.1569 77.1736 32.0759 76.7927 31.9121C76.4117 31.7483 76.0698 31.5056 75.7896 31.1998C75.4838 30.8778 75.2457 30.4977 75.0894 30.0821C74.9331 29.6664 74.8618 29.2236 74.8796 28.7798C74.863 28.3453 74.9351 27.9119 75.0916 27.5061C75.248 27.1004 75.4856 26.7307 75.7896 26.4198C76.0743 26.1212 76.4174 25.8845 76.7977 25.7245C77.178 25.5644 77.5871 25.4846 77.9996 25.4898C78.418 25.474 78.8349 25.5489 79.2215 25.7094C79.6082 25.87 79.9555 26.1123 80.2396 26.4198C80.8308 27.0602 81.1437 27.909 81.1096 28.7798C81.1519 29.676 80.8393 30.5526 80.2396 31.2198C79.9555 31.5274 79.6082 31.7697 79.2215 31.9303C78.8349 32.0908 78.418 32.1657 77.9996 32.1498ZM80.7196 22.1498H75.1096V1.83984H80.7597L80.7196 22.1498Z" fill="white"/>
<path d="M106.361 31.7404H85.2606V25.3304H106.361C107.269 25.3905 108.165 25.0966 108.861 24.5104C109.16 24.2184 109.394 23.8656 109.545 23.4758C109.697 23.0859 109.764 22.6681 109.741 22.2504C109.771 21.8201 109.708 21.3882 109.556 20.9844C109.404 20.5806 109.167 20.2143 108.861 19.9104C108.165 19.3242 107.269 19.0303 106.361 19.0904H93.7206C92.5357 19.1521 91.3506 18.9731 90.2369 18.564C89.1231 18.1549 88.1039 17.5244 87.2406 16.7104C86.4378 15.8961 85.8106 14.9257 85.3978 13.8593C84.985 12.7928 84.7953 11.6531 84.8406 10.5104C84.7955 9.36825 84.9813 8.2287 85.3868 7.15996C85.7923 6.09122 86.4092 5.11525 87.2006 4.29044C88.0769 3.46149 89.1137 2.82087 90.2471 2.4081C91.3805 1.99532 92.5865 1.81915 93.7906 1.89044H114.001V8.29044H93.7906C93.4227 8.27114 93.0549 8.32876 92.7105 8.45962C92.3661 8.59048 92.0528 8.7917 91.7906 9.05044C91.2824 9.63619 91.0208 10.396 91.0606 11.1704C91.0234 11.9415 91.2849 12.6972 91.7906 13.2804C92.0528 13.5392 92.3661 13.7404 92.7105 13.8712C93.0549 14.0021 93.4227 14.0597 93.7906 14.0404H106.361C112.361 14.0404 115.361 16.9538 115.361 22.7804C115.474 25.1651 114.64 27.4978 113.041 29.2704C111.514 30.9238 109.287 31.7471 106.361 31.7404Z" fill="white"/>
<path d="M139.339 31.7407H118.239V25.3307H139.339C140.244 25.3913 141.138 25.0972 141.829 24.5107C142.13 24.2191 142.365 23.8667 142.519 23.4769C142.672 23.0871 142.741 22.669 142.719 22.2507C142.748 21.8196 142.684 21.3873 142.53 20.9834C142.377 20.5795 142.138 20.2136 141.829 19.9107C141.138 19.3242 140.244 19.03 139.339 19.0907H126.689C125.506 19.151 124.323 18.9713 123.211 18.5622C122.099 18.1532 121.082 17.5234 120.219 16.7107C119.413 15.8982 118.783 14.9284 118.369 13.8617C117.954 12.795 117.764 11.6542 117.809 10.5107C117.764 9.36759 117.95 8.22713 118.358 7.15811C118.765 6.08909 119.385 5.11366 120.179 4.29067C121.055 3.46124 122.092 2.8203 123.226 2.40749C124.359 1.99469 125.565 1.81879 126.769 1.89067H146.999V8.29068H126.769C126.401 8.27014 126.033 8.32718 125.689 8.45811C125.344 8.58904 125.031 8.79092 124.769 9.05068C124.514 9.33852 124.318 9.67399 124.193 10.0378C124.068 10.4016 124.015 10.7866 124.039 11.1707C124.016 11.5531 124.069 11.9364 124.194 12.2985C124.319 12.6606 124.515 12.9943 124.769 13.2807C125.031 13.5404 125.344 13.7423 125.689 13.8732C126.033 14.0042 126.401 14.0612 126.769 14.0407H139.339C145.339 14.0407 148.339 16.954 148.339 22.7807C148.446 25.1679 147.605 27.5006 145.999 29.2707C144.479 30.924 142.259 31.7473 139.339 31.7407Z" fill="white"/>
<path d="M155.089 32.1498C154.675 32.1526 154.265 32.0695 153.885 31.9061C153.504 31.7426 153.162 31.5021 152.879 31.1998C152.577 30.8757 152.342 30.4951 152.187 30.0797C152.033 29.6644 151.962 29.2226 151.979 28.7798C151.963 28.3462 152.034 27.9137 152.189 27.5082C152.343 27.1027 152.578 26.7326 152.879 26.4198C153.164 26.1212 153.507 25.8845 153.887 25.7245C154.267 25.5644 154.677 25.4846 155.089 25.4898C155.509 25.4732 155.928 25.5477 156.316 25.7082C156.704 25.8688 157.053 26.1115 157.339 26.4198C157.93 27.0602 158.243 27.909 158.209 28.7798C158.251 29.676 157.939 30.5526 157.339 31.2198C157.053 31.5281 156.704 31.7709 156.316 31.9315C155.928 32.092 155.509 32.1665 155.089 32.1498ZM157.819 22.1498H152.169V1.83984H157.819V22.1498Z" fill="white"/>
<path d="M197.999 31.7411H190.809L186.889 24.6711H174.999L177.729 19.6711H184.029L178.999 10.5111L167.239 31.7411H160.439L176.309 3.53109C176.491 2.90795 176.87 2.36056 177.389 1.97109C177.909 1.58163 178.54 1.37109 179.189 1.37109C179.839 1.37109 180.47 1.58163 180.989 1.97109C181.509 2.36056 181.888 2.90795 182.069 3.53109L197.999 31.7411Z" fill="white"/>
<path d="M3.52411 45.3301V44.5701L4.5072 44.4013V42.1335L1.80522 37.4292L1.08148 37.3146V36.5487H4.10914V37.3146L3.10796 37.4292L4.9716 40.8791L5.09826 41.1143L5.10429 41.1022L5.22491 40.8791L7.17902 37.4292L6.14165 37.3146V36.5487H9.109V37.3146L8.34304 37.4292L5.68931 42.0431V44.4013L6.6724 44.5701V45.3301H3.52411ZM13.706 45.4607C13.1213 45.4607 12.5967 45.3487 12.1322 45.1248C11.6677 44.9008 11.2717 44.5857 10.944 44.1792C10.6206 43.7687 10.3717 43.2835 10.1976 42.7236C10.0275 42.1637 9.94251 41.5458 9.94251 40.8698V40.7392C9.94251 40.0674 10.0275 39.4515 10.1976 38.8917C10.3717 38.3276 10.6206 37.8404 10.944 37.4298C11.2717 37.0192 11.6677 36.702 12.1322 36.478C12.5967 36.2541 13.1213 36.1421 13.706 36.1421C14.324 36.1421 14.8672 36.2541 15.3359 36.478C15.8045 36.702 16.1964 37.0192 16.5116 37.4298C16.8309 37.8404 17.0714 38.3276 17.2332 38.8917C17.3949 39.4515 17.4758 40.0674 17.4758 40.7392V40.8698C17.4758 41.5458 17.3949 42.1637 17.2332 42.7236C17.0714 43.2835 16.8309 43.7687 16.5116 44.1792C16.1964 44.5857 15.8045 44.9008 15.3359 45.1248C14.8672 45.3487 14.324 45.4607 13.706 45.4607ZM13.706 44.4405C14.3074 44.4405 14.7926 44.2912 15.1617 43.9926C15.5349 43.694 15.8086 43.2772 15.9828 42.7423C16.157 42.2031 16.2441 41.579 16.2441 40.8698V40.7268C16.2441 40.0217 16.1549 39.4038 15.9766 38.873C15.8024 38.338 15.5287 37.9212 15.1555 37.6226C14.7822 37.3199 14.2991 37.1685 13.706 37.1685C13.1628 37.1685 12.7024 37.3199 12.325 37.6226C11.9476 37.9254 11.6615 38.3442 11.4666 38.8792C11.2717 39.41 11.1742 40.0259 11.1742 40.7268V40.8698C11.1742 41.5748 11.2717 42.1969 11.4666 42.736C11.6615 43.271 11.9476 43.6899 12.325 43.9926C12.7024 44.2912 13.1628 44.4405 13.706 44.4405ZM22.6141 45.4607C21.992 45.4607 21.4363 45.3384 20.9469 45.0937C20.4576 44.849 20.0719 44.5007 19.7899 44.0486C19.5079 43.5924 19.3669 43.0471 19.3669 42.4126V37.2369L18.3529 37.0628V36.2727H21.6063V37.0628L20.5924 37.2369V42.4126C20.5924 42.8646 20.6774 43.2441 20.8474 43.551C21.0216 43.8578 21.2621 44.0901 21.569 44.2477C21.8759 44.4011 22.2305 44.4778 22.6327 44.4778C23.0392 44.4778 23.3979 44.4011 23.7089 44.2477C24.0241 44.0942 24.2688 43.8641 24.443 43.5572C24.6213 43.2503 24.7105 42.8688 24.7105 42.4126V37.2369L23.6965 37.0628V36.2727H26.9499V37.0628L25.9359 37.2369V42.4126C25.9359 43.0678 25.797 43.6235 25.5191 44.0797C25.2454 44.5318 24.8598 44.876 24.3621 45.1124C23.8644 45.3446 23.2818 45.4607 22.6141 45.4607ZM27.8892 45.3301V44.5463L28.9032 44.3721V37.2369L27.8892 37.0628V36.279H31.9265C32.5859 36.279 33.1416 36.3785 33.5936 36.5775C34.0498 36.7725 34.3961 37.0565 34.6325 37.4298C34.8689 37.803 34.9871 38.2592 34.9871 38.7983C34.9871 39.3292 34.8709 39.775 34.6387 40.1358C34.4106 40.4966 34.0851 40.7703 33.6621 40.9569C33.239 41.1394 32.7372 41.2369 32.1566 41.2493L30.1287 41.2866V44.3721L31.1427 44.5463V45.3301H27.8892ZM33.8673 45.3301L31.8518 40.8076L33.0773 40.7952L34.7507 44.4156L35.379 44.5276V45.3301H33.8673ZM30.1287 40.3224H31.8021C32.4863 40.3224 32.984 40.1918 33.295 39.9305C33.6061 39.6692 33.7616 39.2877 33.7616 38.7859C33.7616 38.309 33.6123 37.9316 33.3137 37.6537C33.0151 37.3759 32.5527 37.2369 31.9265 37.2369H30.1287V40.3224ZM39.6837 45.3301V44.5463L40.6977 44.3721V37.2369L39.6837 37.0628V36.2727H40.6977H43.8453C44.4923 36.2727 45.0439 36.3868 45.5 36.6149C45.9562 36.8388 46.3046 37.154 46.5451 37.5604C46.7857 37.9668 46.9059 38.4417 46.9059 38.985C46.9059 39.5324 46.7857 40.0093 46.5451 40.4157C46.3046 40.8221 45.9562 41.1373 45.5 41.3613C45.0439 41.5852 44.4923 41.6972 43.8453 41.6972H41.9231V44.3721L42.9371 44.5463V45.3301H39.6837ZM41.9231 40.7392H43.8453C44.4591 40.7392 44.9174 40.5754 45.2201 40.2478C45.527 39.916 45.6804 39.4992 45.6804 38.9974C45.6804 38.4956 45.527 38.0767 45.2201 37.7408C44.9174 37.4049 44.4591 37.2369 43.8453 37.2369H41.9231V40.7392ZM47.7582 45.3301V44.5463L48.7721 44.3721V37.2369L47.7582 37.0628V36.279H51.7954C52.4548 36.279 53.0105 36.3785 53.4625 36.5775C53.9187 36.7725 54.265 37.0565 54.5014 37.4298C54.7378 37.803 54.856 38.2592 54.856 38.7983C54.856 39.3292 54.7399 39.775 54.5076 40.1358C54.2795 40.4966 53.954 40.7703 53.531 40.9569C53.108 41.1394 52.6062 41.2369 52.0256 41.2493L49.9976 41.2866V44.3721L51.0116 44.5463V45.3301H47.7582ZM53.7363 45.3301L51.7208 40.8076L52.9462 40.7952L54.6196 44.4156L55.2479 44.5276V45.3301H53.7363ZM49.9976 40.3224H51.671C52.3553 40.3224 52.8529 40.1918 53.164 39.9305C53.475 39.6692 53.6305 39.2877 53.6305 38.7859C53.6305 38.309 53.4812 37.9316 53.1826 37.6537C52.884 37.3759 52.4216 37.2369 51.7954 37.2369H49.9976V40.3224ZM60.0752 45.4607C59.4904 45.4607 58.9658 45.3487 58.5013 45.1248C58.0368 44.9008 57.6408 44.5857 57.3132 44.1792C56.9897 43.7687 56.7409 43.2835 56.5667 42.7236C56.3966 42.1637 56.3116 41.5458 56.3116 40.8698V40.7392C56.3116 40.0674 56.3966 39.4515 56.5667 38.8917C56.7409 38.3276 56.9897 37.8404 57.3132 37.4298C57.6408 37.0192 58.0368 36.702 58.5013 36.478C58.9658 36.2541 59.4904 36.1421 60.0752 36.1421C60.6931 36.1421 61.2364 36.2541 61.705 36.478C62.1736 36.702 62.5655 37.0192 62.8807 37.4298C63.2 37.8404 63.4406 38.3276 63.6023 38.8917C63.764 39.4515 63.8449 40.0674 63.8449 40.7392V40.8698C63.8449 41.5458 63.764 42.1637 63.6023 42.7236C63.4406 43.2835 63.2 43.7687 62.8807 44.1792C62.5655 44.5857 62.1736 44.9008 61.705 45.1248C61.2364 45.3487 60.6931 45.4607 60.0752 45.4607ZM60.0752 44.4405C60.6765 44.4405 61.1617 44.2912 61.5308 43.9926C61.904 43.694 62.1778 43.2772 62.3519 42.7423C62.5261 42.2031 62.6132 41.579 62.6132 40.8698V40.7268C62.6132 40.0217 62.524 39.4038 62.3457 38.873C62.1715 38.338 61.8978 37.9212 61.5246 37.6226C61.1513 37.3199 60.6682 37.1685 60.0752 37.1685C59.5319 37.1685 59.0716 37.3199 58.6942 37.6226C58.3168 37.9254 58.0306 38.3442 57.8357 38.8792C57.6408 39.41 57.5433 40.0259 57.5433 40.7268V40.8698C57.5433 41.5748 57.6408 42.1969 57.8357 42.736C58.0306 43.271 58.3168 43.6899 58.6942 43.9926C59.0716 44.2912 59.5319 44.4405 60.0752 44.4405ZM64.7904 45.3301V44.5463L65.8044 44.3721V37.2369L64.7904 37.0628V36.2727H65.8044H68.9521C69.5991 36.2727 70.1506 36.3868 70.6068 36.6149C71.063 36.8388 71.4114 37.154 71.6519 37.5604C71.8924 37.9668 72.0127 38.4417 72.0127 38.985C72.0127 39.5324 71.8924 40.0093 71.6519 40.4157C71.4114 40.8221 71.063 41.1373 70.6068 41.3613C70.1506 41.5852 69.5991 41.6972 68.9521 41.6972H67.0299V44.3721L68.0439 44.5463V45.3301H64.7904ZM67.0299 40.7392H68.9521C69.5659 40.7392 70.0241 40.5754 70.3269 40.2478C70.6338 39.916 70.7872 39.4992 70.7872 38.9974C70.7872 38.4956 70.6338 38.0767 70.3269 37.7408C70.0241 37.4049 69.5659 37.2369 68.9521 37.2369H67.0299V40.7392ZM72.8649 45.3301V44.5463L73.8789 44.3721V37.2369L72.8649 37.0628V36.2727H79.5708V38.45H78.588L78.4511 37.2183H75.1044V40.1669H78.4449V41.1311H75.1044V44.4094H78.6502L78.787 43.1591H79.7637V45.3301H72.8649ZM80.9892 45.3301V44.5463L82.0031 44.3721V37.2369L80.9892 37.0628V36.279H85.0264C85.6858 36.279 86.2415 36.3785 86.6935 36.5775C87.1497 36.7725 87.496 37.0565 87.7324 37.4298C87.9688 37.803 88.087 38.2592 88.087 38.7983C88.087 39.3292 87.9709 39.775 87.7386 40.1358C87.5105 40.4966 87.185 40.7703 86.762 40.9569C86.339 41.1394 85.8372 41.2369 85.2566 41.2493L83.2286 41.2866V44.3721L84.2426 44.5463V45.3301H80.9892ZM86.9673 45.3301L84.9517 40.8076L86.1772 40.7952L87.8506 44.4156L88.4789 44.5276V45.3301H86.9673ZM83.2286 40.3224H84.902C85.5863 40.3224 86.0839 40.1918 86.395 39.9305C86.706 39.6692 86.8615 39.2877 86.8615 38.7859C86.8615 38.309 86.7122 37.9316 86.4136 37.6537C86.115 37.3759 85.6526 37.2369 85.0264 37.2369H83.2286V40.3224ZM91.3466 45.3301V44.5463L92.3606 44.3721V37.1996H90.3078L90.1274 38.4562H89.2067V36.2727H96.7338V38.4562H95.8255L95.6389 37.1996H93.5861V44.3721L94.6001 44.5463V45.3301H91.3466ZM100.379 45.3301V44.5463L101.393 44.3721V42.0331L98.6062 37.181L97.8597 37.0628V36.2727H100.982V37.0628L99.9499 37.181L101.872 40.7392L102.003 40.9818L102.009 40.9694L102.133 40.7392L104.149 37.181L103.079 37.0628V36.2727H106.139V37.0628L105.349 37.181L102.612 41.9398V44.3721L103.626 44.5463V45.3301H100.379ZM106.065 47.2647L105.374 46.8044C105.569 46.5058 105.716 46.201 105.816 45.8899C105.916 45.5789 105.965 45.2492 105.965 44.9008V43.9553H107.191V44.8822C107.191 45.2886 107.089 45.7137 106.886 46.1574C106.683 46.6012 106.409 46.9703 106.065 47.2647ZM115.116 45.4607C114.531 45.4607 114.007 45.3487 113.542 45.1248C113.078 44.9008 112.682 44.5857 112.354 44.1792C112.03 43.7687 111.782 43.2835 111.607 42.7236C111.437 42.1637 111.352 41.5458 111.352 40.8698V40.7392C111.352 40.0674 111.437 39.4515 111.607 38.8917C111.782 38.3276 112.03 37.8404 112.354 37.4298C112.682 37.0192 113.078 36.702 113.542 36.478C114.007 36.2541 114.531 36.1421 115.116 36.1421C115.734 36.1421 116.277 36.2541 116.746 36.478C117.214 36.702 117.606 37.0192 117.921 37.4298C118.241 37.8404 118.481 38.3276 118.643 38.8917C118.805 39.4515 118.886 40.0674 118.886 40.7392V40.8698C118.886 41.5458 118.805 42.1637 118.643 42.7236C118.481 43.2835 118.241 43.7687 117.921 44.1792C117.606 44.5857 117.214 44.9008 116.746 45.1248C116.277 45.3487 115.734 45.4607 115.116 45.4607ZM115.116 44.4405C115.717 44.4405 116.202 44.2912 116.572 43.9926C116.945 43.694 117.219 43.2772 117.393 42.7423C117.567 42.2031 117.654 41.579 117.654 40.8698V40.7268C117.654 40.0217 117.565 39.4038 117.386 38.873C117.212 38.338 116.939 37.9212 116.565 37.6226C116.192 37.3199 115.709 37.1685 115.116 37.1685C114.573 37.1685 114.112 37.3199 113.735 37.6226C113.358 37.9254 113.071 38.3442 112.876 38.8792C112.682 39.41 112.584 40.0259 112.584 40.7268V40.8698C112.584 41.5748 112.682 42.1969 112.876 42.736C113.071 43.271 113.358 43.6899 113.735 43.9926C114.112 44.2912 114.573 44.4405 115.116 44.4405ZM124.024 45.4607C123.402 45.4607 122.846 45.3384 122.357 45.0937C121.867 44.849 121.482 44.5007 121.2 44.0486C120.918 43.5924 120.777 43.0471 120.777 42.4126V37.2369L119.763 37.0628V36.2727H123.016V37.0628L122.002 37.2369V42.4126C122.002 42.8646 122.087 43.2441 122.257 43.551C122.431 43.8578 122.672 44.0901 122.979 44.2477C123.286 44.4011 123.64 44.4778 124.043 44.4778C124.449 44.4778 124.808 44.4011 125.119 44.2477C125.434 44.0942 125.679 43.8641 125.853 43.5572C126.031 43.2503 126.12 42.8688 126.12 42.4126V37.2369L125.106 37.0628V36.2727H128.36V37.0628L127.346 37.2369V42.4126C127.346 43.0678 127.207 43.6235 126.929 44.0797C126.655 44.5318 126.27 44.876 125.772 45.1124C125.274 45.3446 124.692 45.4607 124.024 45.4607ZM129.299 45.3301V44.5463L130.313 44.3721V37.2369L129.299 37.0628V36.279H133.336C133.996 36.279 134.551 36.3785 135.004 36.5775C135.46 36.7725 135.806 37.0565 136.042 37.4298C136.279 37.803 136.397 38.2592 136.397 38.7983C136.397 39.3292 136.281 39.775 136.049 40.1358C135.821 40.4966 135.495 40.7703 135.072 40.9569C134.649 41.1394 134.147 41.2369 133.567 41.2493L131.539 41.2866V44.3721L132.553 44.5463V45.3301H129.299ZM135.277 45.3301L133.262 40.8076L134.487 40.7952L136.161 44.4156L136.789 44.5276V45.3301H135.277ZM131.539 40.3224H133.212C133.896 40.3224 134.394 40.1918 134.705 39.9305C135.016 39.6692 135.171 39.2877 135.171 38.7859C135.171 38.309 135.022 37.9316 134.724 37.6537C134.425 37.3759 133.963 37.2369 133.336 37.2369H131.539V40.3224ZM141.094 45.3301V44.5463L142.108 44.3721V37.2369L141.094 37.0628V36.2727H142.108H145.255C145.902 36.2727 146.454 36.3868 146.91 36.6149C147.366 36.8388 147.715 37.154 147.955 37.5604C148.196 37.9668 148.316 38.4417 148.316 38.985C148.316 39.5324 148.196 40.0093 147.955 40.4157C147.715 40.8221 147.366 41.1373 146.91 41.3613C146.454 41.5852 145.902 41.6972 145.255 41.6972H143.333V44.3721L144.347 44.5463V45.3301H141.094ZM143.333 40.7392H145.255C145.869 40.7392 146.327 40.5754 146.63 40.2478C146.937 39.916 147.09 39.4992 147.09 38.9974C147.09 38.4956 146.937 38.0767 146.63 37.7408C146.327 37.4049 145.869 37.2369 145.255 37.2369H143.333V40.7392ZM149.168 45.3301V44.5463L150.182 44.3721V37.2369L149.168 37.0628V36.279H153.205C153.865 36.279 154.42 36.3785 154.872 36.5775C155.329 36.7725 155.675 37.0565 155.911 37.4298C156.148 37.803 156.266 38.2592 156.266 38.7983C156.266 39.3292 156.15 39.775 155.918 40.1358C155.689 40.4966 155.364 40.7703 154.941 40.9569C154.518 41.1394 154.016 41.2369 153.435 41.2493L151.408 41.2866V44.3721L152.421 44.5463V45.3301H149.168ZM155.146 45.3301L153.131 40.8076L154.356 40.7952L156.029 44.4156L156.658 44.5276V45.3301H155.146ZM151.408 40.3224H153.081C153.765 40.3224 154.263 40.1918 154.574 39.9305C154.885 39.6692 155.04 39.2877 155.04 38.7859C155.04 38.309 154.891 37.9316 154.593 37.6537C154.294 37.3759 153.832 37.2369 153.205 37.2369H151.408V40.3224ZM157.79 45.3301V44.5463L158.804 44.3721V37.2369L157.79 37.0628V36.2727H161.043V37.0628L160.029 37.2369V44.3721L161.043 44.5463V45.3301H157.79ZM165.752 45.4607C165.168 45.4607 164.643 45.3487 164.179 45.1248C163.714 44.9008 163.318 44.5857 162.99 44.1792C162.667 43.7687 162.418 43.2835 162.244 42.7236C162.074 42.1637 161.989 41.5458 161.989 40.8698V40.7392C161.989 40.0674 162.074 39.4515 162.244 38.8917C162.418 38.3276 162.667 37.8404 162.99 37.4298C163.318 37.0192 163.714 36.702 164.179 36.478C164.643 36.2541 165.168 36.1421 165.752 36.1421C166.37 36.1421 166.914 36.2541 167.382 36.478C167.851 36.702 168.243 37.0192 168.558 37.4298C168.877 37.8404 169.118 38.3276 169.28 38.8917C169.441 39.4515 169.522 40.0674 169.522 40.7392V40.8698C169.522 41.5458 169.441 42.1637 169.28 42.7236C169.118 43.2835 168.877 43.7687 168.558 44.1792C168.243 44.5857 167.851 44.9008 167.382 45.1248C166.914 45.3487 166.37 45.4607 165.752 45.4607ZM165.752 44.4405C166.354 44.4405 166.839 44.2912 167.208 43.9926C167.581 43.694 167.855 43.2772 168.029 42.7423C168.203 42.2031 168.291 41.579 168.291 40.8698V40.7268C168.291 40.0217 168.201 39.4038 168.023 38.873C167.849 38.338 167.575 37.9212 167.202 37.6226C166.829 37.3199 166.345 37.1685 165.752 37.1685C165.209 37.1685 164.749 37.3199 164.371 37.6226C163.994 37.9254 163.708 38.3442 163.513 38.8792C163.318 39.41 163.221 40.0259 163.221 40.7268V40.8698C163.221 41.5748 163.318 42.1969 163.513 42.736C163.708 43.271 163.994 43.6899 164.371 43.9926C164.749 44.2912 165.209 44.4405 165.752 44.4405ZM170.468 45.3301V44.5463L171.482 44.3721V37.2369L170.468 37.0628V36.279H174.505C175.164 36.279 175.72 36.3785 176.172 36.5775C176.628 36.7725 176.975 37.0565 177.211 37.4298C177.447 37.803 177.566 38.2592 177.566 38.7983C177.566 39.3292 177.449 39.775 177.217 40.1358C176.989 40.4966 176.664 40.7703 176.241 40.9569C175.818 41.1394 175.316 41.2369 174.735 41.2493L172.707 41.2866V44.3721L173.721 44.5463V45.3301H170.468ZM176.446 45.3301L174.43 40.8076L175.656 40.7952L177.329 44.4156L177.957 44.5276V45.3301H176.446ZM172.707 40.3224H174.381C175.065 40.3224 175.563 40.1918 175.874 39.9305C176.185 39.6692 176.34 39.2877 176.34 38.7859C176.34 38.309 176.191 37.9316 175.892 37.6537C175.594 37.3759 175.131 37.2369 174.505 37.2369H172.707V40.3224ZM179.09 45.3301V44.5463L180.104 44.3721V37.2369L179.09 37.0628V36.2727H182.343V37.0628L181.329 37.2369V44.3721L182.343 44.5463V45.3301H179.09ZM185.59 45.3301V44.5463L186.604 44.3721V37.1996H184.551L184.371 38.4562H183.45V36.2727H190.977V38.4562H190.069L189.883 37.1996H187.83V44.3721L188.844 44.5463V45.3301H185.59ZM194.623 45.3301V44.5463L195.637 44.3721V42.0331L192.85 37.181L192.103 37.0628V36.2727H195.226V37.0628L194.194 37.181L196.116 40.7392L196.246 40.9818L196.253 40.9694L196.377 40.7392L198.392 37.181L197.323 37.0628V36.2727H200.383V37.0628L199.593 37.181L196.856 41.9398V44.3721L197.87 44.5463V45.3301H194.623Z" fill="white"/>
</g>
<defs>
<clipPath id="clip0_106_366">
<rect width="200" height="50" fill="white"/>
</clipPath>
</defs>
</svg>
