<svg width="45" height="45" viewBox="0 0 45 45" fill="none" xmlns="http://www.w3.org/2000/svg">
<circle cx="22.5" cy="22.5" r="21.725" stroke="#274F9A" stroke-width="0.55"/>
<path fill-rule="evenodd" clip-rule="evenodd" d="M31.2439 10.0897C31.917 10.0897 32.5615 10.3571 33.0391 10.8335C33.5138 11.309 33.7814 11.9546 33.7814 12.6282V13.4743C33.7814 14.1479 33.5138 14.7935 33.0391 15.269C32.5615 15.7454 31.917 16.0128 31.2439 16.0128H20.2426C19.5694 16.0128 18.9249 15.7454 18.4473 15.269C17.9726 14.7935 17.7051 14.1479 17.7051 13.4743V12.6282C17.7051 11.9546 17.9726 11.309 18.4473 10.8335C18.9249 10.3571 19.5694 10.0897 20.2426 10.0897H31.2439ZM31.2439 18.9743C31.917 18.9743 32.5615 19.2417 33.0391 19.7181C33.5138 20.1936 33.7814 20.8393 33.7814 21.5128V22.359C33.7814 23.0325 33.5138 23.6781 33.0391 24.1536C32.5615 24.63 31.917 24.8974 31.2439 24.8974H20.2426C19.5694 24.8974 18.9249 24.63 18.4473 24.1536C17.9726 23.6781 17.7051 23.0325 17.7051 22.359V21.5128C17.7051 20.8393 17.9726 20.1936 18.4473 19.7181C18.9249 19.2417 19.5694 18.9743 20.2426 18.9743H31.2439ZM31.2439 27.859C31.917 27.859 32.5615 28.1263 33.0391 28.6027C33.5138 29.0783 33.7814 29.7239 33.7814 30.3974V31.2436C33.7814 31.9171 33.5138 32.5627 33.0391 33.0383C32.5615 33.5146 31.917 33.782 31.2439 33.782H20.2426C19.5694 33.782 18.9249 33.5146 18.4473 33.0383C17.9726 32.5627 17.7051 31.9171 17.7051 31.2436V30.3974C17.7051 29.7239 17.9726 29.0783 18.4473 28.6027C18.9249 28.1263 19.5694 27.859 20.2426 27.859H31.2439ZM13.0503 10.0897C14.6844 10.0897 16.0135 11.4165 16.0135 13.0513C16.0135 14.686 14.6844 16.0128 13.0503 16.0128C11.4162 16.0128 10.0898 14.686 10.0898 13.0513C10.0898 11.4165 11.4162 10.0897 13.0503 10.0897ZM13.0503 18.9743C14.6844 18.9743 16.0135 20.3011 16.0135 21.9359C16.0135 23.5706 14.6844 24.8974 13.0503 24.8974C11.4162 24.8974 10.0898 23.5706 10.0898 21.9359C10.0898 20.3011 11.4162 18.9743 13.0503 18.9743ZM13.0503 27.859C14.6844 27.859 16.0135 29.1857 16.0135 30.8205C16.0135 32.4553 14.6844 33.782 13.0503 33.782C11.4162 33.782 10.0898 32.4553 10.0898 30.8205C10.0898 29.1857 11.4162 27.859 13.0503 27.859Z" fill="#274F9A"/>
</svg>
