<svg width="49" height="49" viewBox="0 0 49 49" fill="none" xmlns="http://www.w3.org/2000/svg">
<path d="M37.6229 37.2093H10.8334C10.6493 37.2093 10.5 37.3586 10.5 37.5427C10.5 37.7267 10.6493 37.8761 10.8334 37.8761H37.6229C37.807 37.8761 37.9563 37.7267 37.9563 37.5427C37.9563 37.3586 37.807 37.2093 37.6229 37.2093Z" fill="#274F9A"/>
<path d="M10.8334 35.6072H11.9447C12.1288 35.6072 12.2781 35.4579 12.2781 35.2738C12.2781 35.0898 12.1288 34.9404 11.9447 34.9404H10.8334C10.6493 34.9404 10.5 35.0898 10.5 35.2738C10.5 35.4579 10.6493 35.6072 10.8334 35.6072Z" fill="#274F9A"/>
<path d="M20.8789 35.6072C21.063 35.6072 21.2123 35.4579 21.2123 35.2738C21.2123 35.0898 21.063 34.9404 20.8789 34.9404H18.6459C18.4618 34.9404 18.3125 35.0898 18.3125 35.2738C18.3125 35.4579 18.4618 35.6072 18.6459 35.6072H20.8789Z" fill="#274F9A"/>
<path d="M16.4116 35.6072C16.5957 35.6072 16.745 35.4579 16.745 35.2738C16.745 35.0898 16.5957 34.9404 16.4116 34.9404H14.1781C13.9941 34.9404 13.8447 35.0898 13.8447 35.2738C13.8447 35.4579 13.9941 35.6072 14.1781 35.6072H16.4116Z" fill="#274F9A"/>
<path d="M29.8125 35.6072C29.9966 35.6072 30.1459 35.4579 30.1459 35.2738C30.1459 35.0898 29.9966 34.9404 29.8125 34.9404H27.5795C27.3954 34.9404 27.2461 35.0898 27.2461 35.2738C27.2461 35.4579 27.3954 35.6072 27.5795 35.6072H29.8125Z" fill="#274F9A"/>
<path d="M25.3452 35.6072C25.5292 35.6072 25.6786 35.4579 25.6786 35.2738C25.6786 35.0898 25.5292 34.9404 25.3452 34.9404H23.1117C22.9277 34.9404 22.7783 35.0898 22.7783 35.2738C22.7783 35.4579 22.9277 35.6072 23.1117 35.6072H25.3452Z" fill="#274F9A"/>
<path d="M34.2788 35.6072C34.4628 35.6072 34.6122 35.4579 34.6122 35.2738C34.6122 35.0898 34.4628 34.9404 34.2788 34.9404H32.0453C31.8612 34.9404 31.7119 35.0898 31.7119 35.2738C31.7119 35.4579 31.8612 35.6072 32.0453 35.6072H34.2788Z" fill="#274F9A"/>
<path d="M37.6234 34.9404H36.5121C36.328 34.9404 36.1787 35.0898 36.1787 35.2738C36.1787 35.4579 36.328 35.6072 36.5121 35.6072H37.6234C37.8075 35.6072 37.9568 35.4579 37.9568 35.2738C37.9568 35.0898 37.8075 34.9404 37.6234 34.9404Z" fill="#274F9A"/>
<path d="M33.8308 19.546L36.659 20.4691C36.8307 20.5256 37.0213 20.4329 37.0792 20.2557C37.1365 20.0806 37.041 19.8924 36.8656 19.8353L34.0374 18.9122C33.8625 18.8553 33.6745 18.9504 33.6172 19.1255C33.5599 19.3007 33.6554 19.4889 33.8308 19.546Z" fill="#274F9A"/>
<path d="M32.5915 19.142L32.8389 19.2226C33.0127 19.2786 33.202 19.1853 33.2592 19.0086C33.3165 18.8336 33.2205 18.6454 33.0456 18.5883L32.7981 18.5078C32.6232 18.452 32.4348 18.5467 32.3779 18.7218C32.3206 18.8968 32.4166 19.085 32.5915 19.142Z" fill="#274F9A"/>
<path d="M16.1527 19.0478L16.5056 18.9326C16.681 18.8755 16.7765 18.6873 16.7192 18.5121C16.6619 18.3372 16.4735 18.241 16.299 18.2988L15.946 18.414C15.7707 18.4711 15.6751 18.6593 15.7325 18.8344C15.7905 19.0118 15.9811 19.1043 16.1527 19.0478Z" fill="#274F9A"/>
<path d="M12.554 20.2225L15.2368 19.3469C15.4122 19.2898 15.5077 19.1017 15.4504 18.9265C15.3931 18.7515 15.2051 18.6554 15.0302 18.7131L12.3474 19.5887C12.172 19.6458 12.0765 19.834 12.1338 20.0092C12.1917 20.186 12.3816 20.2793 12.554 20.2225Z" fill="#274F9A"/>
<path d="M37.4523 21.7876L29.6464 19.2405V18.2803H30.3354C30.6154 18.2803 30.8599 18.1158 30.9666 17.8625C31.0778 17.6091 31.0245 17.3157 30.8332 17.1157L24.7255 10.7856C24.4633 10.5145 23.9965 10.5145 23.7342 10.7856L17.622 17.1157C17.4309 17.3157 17.3776 17.6091 17.4842 17.8625C17.591 18.1158 17.8398 18.2803 18.1155 18.2803H18.8134V19.2405L11.0031 21.7876C10.3896 21.9921 10.0029 22.5611 10.0029 23.1656C10.0029 23.3168 10.0295 23.4679 10.0785 23.619C10.2696 24.2192 10.8475 24.6548 11.5499 24.6059V32.6696H10.8341C10.6475 32.6696 10.5007 32.8207 10.5007 33.003C10.5007 33.1896 10.6475 33.3363 10.8341 33.3363H37.6211C37.8079 33.3363 37.9545 33.1896 37.9545 33.003C37.9545 32.8207 37.8079 32.6696 37.6211 32.6696H36.9055V24.6059C36.9367 24.6103 36.9721 24.6148 37.0033 24.6148C37.6345 24.6148 38.1857 24.2147 38.3814 23.619C38.6347 22.8589 38.2124 22.041 37.4523 21.7876ZM18.8134 32.6696H12.2166V24.4414L18.8134 22.2855V32.6696ZM23.8482 13.0808L23.9897 12.9345C24.1182 12.8028 24.3287 12.7991 24.4611 12.9267C24.5935 13.0548 24.597 13.2658 24.4689 13.3982L24.3274 13.5445C24.1978 13.6779 23.9873 13.6792 23.856 13.5523C23.7236 13.4242 23.7201 13.2132 23.8482 13.0808ZM21.6729 15.3343L23.1627 13.7913C23.2903 13.6589 23.5018 13.6552 23.6337 13.783C23.7666 13.9109 23.77 14.122 23.642 14.2544L22.1521 15.7975C22.0254 15.9292 21.8142 15.9342 21.6811 15.8057C21.5483 15.6779 21.5448 15.4667 21.6729 15.3343ZM25.608 29.915H25.2108C25.0268 29.915 24.8774 29.7657 24.8774 29.5816C24.8774 29.3976 25.0268 29.2482 25.2108 29.2482H25.608C25.7921 29.2482 25.9414 29.3976 25.9414 29.5816C25.9414 29.7657 25.7921 29.915 25.608 29.915ZM28.9796 32.6696H27.2904V27.7487C27.2904 26.0595 25.9169 24.6859 24.2277 24.6859C22.5385 24.6859 21.1693 26.0595 21.1693 27.7487V32.6696H19.4802V18.2803H28.9796V32.6696ZM36.2387 32.6696H29.6464V22.2855C33.3404 23.4946 32.638 23.2634 36.2387 24.4414V32.6696Z" fill="#274F9A"/>
<path d="M14.5369 31.5627H16.4928C16.9284 31.5627 17.2885 31.2026 17.2885 30.7626V25.9662C17.2885 25.5261 16.9284 25.166 16.4928 25.166H14.5369C14.0969 25.166 13.7412 25.5261 13.7412 25.9662V30.7626C13.7412 31.2026 14.0969 31.5627 14.5369 31.5627Z" fill="#274F9A"/>
<path d="M31.9666 31.5627H33.9181C34.3582 31.5627 34.7139 31.2026 34.7139 30.7626V25.9662C34.7139 25.5261 34.3582 25.166 33.9181 25.166H31.9666C31.5265 25.166 31.1709 25.5261 31.1709 25.9662V30.7626C31.1709 31.2026 31.5265 31.5627 31.9666 31.5627Z" fill="#274F9A"/>
<path d="M22.5336 20.0348H27.742C27.926 20.0348 28.0754 19.8854 28.0754 19.7014C28.0754 19.5173 27.926 19.368 27.742 19.368H22.5336C22.3495 19.368 22.2002 19.5173 22.2002 19.7014C22.2002 19.8854 22.3495 20.0348 22.5336 20.0348Z" fill="#274F9A"/>
<path d="M20.7152 20.0348H21.1224C21.3065 20.0348 21.4558 19.8854 21.4558 19.7014C21.4558 19.5173 21.3065 19.368 21.1224 19.368H20.7152C20.5312 19.368 20.3818 19.5173 20.3818 19.7014C20.3818 19.8854 20.5312 20.0348 20.7152 20.0348Z" fill="#274F9A"/>
<path d="M27.7415 21.3275H27.4789C27.2948 21.3275 27.1455 21.4768 27.1455 21.6609C27.1455 21.845 27.2948 21.9943 27.4789 21.9943H27.7415C27.9256 21.9943 28.0749 21.845 28.0749 21.6609C28.0749 21.4768 27.9256 21.3275 27.7415 21.3275Z" fill="#274F9A"/>
<path d="M20.7152 21.9943H26.1693C26.3534 21.9943 26.5027 21.845 26.5027 21.6609C26.5027 21.4768 26.3534 21.3275 26.1693 21.3275H20.7152C20.5312 21.3275 20.3818 21.4768 20.3818 21.6609C20.3818 21.845 20.5312 21.9943 20.7152 21.9943Z" fill="#274F9A"/>
<path d="M27.7421 23.2873H22.5853C22.4013 23.2873 22.252 23.4366 22.252 23.6207C22.252 23.8047 22.4013 23.9541 22.5853 23.9541H27.7421C27.9261 23.9541 28.0755 23.8047 28.0755 23.6207C28.0755 23.4366 27.9261 23.2873 27.7421 23.2873Z" fill="#274F9A"/>
<path d="M20.7152 23.9541H21.0378C21.2218 23.9541 21.3712 23.8047 21.3712 23.6207C21.3712 23.4366 21.2218 23.2873 21.0378 23.2873H20.7152C20.5312 23.2873 20.3818 23.4366 20.3818 23.6207C20.3818 23.8047 20.5312 23.9541 20.7152 23.9541Z" fill="#274F9A"/>
<circle cx="24.5" cy="24.5" r="23.7" stroke="#274F9A" stroke-width="0.6"/>
</svg>
