<svg width="21" height="21" viewBox="0 0 21 21" fill="none" xmlns="http://www.w3.org/2000/svg">
<path d="M20.8499 10.4999C20.8499 11.3366 20.1723 12.0143 19.3355 12.0143H12.0143V19.3355C12.0143 20.1723 11.3366 20.8499 10.4999 20.8499C9.66319 20.8499 8.98553 20.1723 8.98553 19.3355V12.0143H1.66427C0.827552 12.0143 0.149902 11.3366 0.149902 10.4999C0.149902 9.66318 0.827552 8.98553 1.66427 8.98553H8.98553V1.66427C8.98553 0.827552 9.66319 0.149902 10.4999 0.149902C11.3366 0.149902 12.0143 0.827552 12.0143 1.66427V8.98553H19.3355C20.1723 8.98553 20.8499 9.66318 20.8499 10.4999Z" fill="white"/>
</svg>
