<svg width="49" height="49" viewBox="0 0 49 49" fill="none" xmlns="http://www.w3.org/2000/svg">
<path fill-rule="evenodd" clip-rule="evenodd" d="M36.9152 26.27C35.5952 26.24 34.2752 26.33 32.9552 26.48V24.62C33.5252 24.53 34.0952 24.29 34.5452 23.9C34.7252 23.96 34.9352 23.99 35.1452 23.99C36.3752 23.99 37.3952 22.97 37.3952 21.74C37.3952 20.9 36.9152 20.12 36.1952 19.76C36.2552 19.58 36.2552 19.37 36.2552 19.19C36.2552 18.2 35.6252 17.36 34.7252 17.06C34.6652 16.58 34.4552 16.16 34.0952 15.83C33.6752 15.41 33.1052 15.17 32.5052 15.17C31.9052 15.17 31.3352 15.41 30.9152 15.83C30.5852 16.16 30.3752 16.61 30.2852 17.06C29.3852 17.36 28.7552 18.2 28.7552 19.19C28.7552 19.4 28.7852 19.58 28.8152 19.76C28.0952 20.15 27.6152 20.9 27.6152 21.74C27.6152 22.97 28.6352 23.99 29.8652 23.99C30.0752 23.99 30.2552 23.96 30.4652 23.9C30.9152 24.29 31.4552 24.53 32.0552 24.62V26.6C28.4852 27.14 24.7952 28.31 20.9552 30.14C20.0552 29.99 19.1252 29.87 18.1952 29.78V26.24C19.2152 26.15 20.1452 25.73 20.8652 25.04C21.1952 25.13 21.5252 25.19 21.8552 25.19C23.6552 25.19 25.1252 23.72 25.1252 21.92C25.1252 20.6 24.3452 19.43 23.1752 18.92C23.2952 18.59 23.3552 18.23 23.3552 17.87C23.3552 16.4 22.3652 15.11 20.9852 14.72C20.9252 13.97 20.5952 13.28 20.0552 12.74C19.4252 12.11 18.6152 11.78 17.7452 11.78C16.8752 11.78 16.0352 12.14 15.4352 12.74C14.8952 13.28 14.5952 13.97 14.5052 14.72C13.1252 15.11 12.1352 16.4 12.1352 17.87C12.1352 18.23 12.1952 18.59 12.3152 18.92C11.1452 19.4 10.3652 20.6 10.3652 21.89C10.3652 23.69 11.8352 25.16 13.6352 25.16C13.9652 25.16 14.2952 25.1 14.6252 25.01C15.3452 25.7 16.3052 26.12 17.2952 26.21V29.66C15.2252 29.48 13.0352 29.39 10.7852 29.42C10.5752 29.48 10.3652 29.66 10.3652 29.9V36.8C10.3652 37.04 10.5752 37.25 10.8152 37.25H36.9152H36.9452C37.0052 37.25 37.0652 37.22 37.1252 37.19C37.1852 37.16 37.2152 37.13 37.2752 37.07C37.3052 37.04 37.3352 36.98 37.3652 36.92C37.3652 36.86 37.3952 36.83 37.3952 36.77V26.72C37.3652 26.48 37.1552 26.27 36.9152 26.27ZM14.7452 24.05C14.6852 24.05 14.6252 24.05 14.5652 24.08C14.2652 24.2 13.9652 24.26 13.6352 24.26C12.3152 24.26 11.2652 23.18 11.2652 21.89C11.2652 20.81 11.9852 19.85 13.0352 19.58C13.1552 19.55 13.2752 19.46 13.3352 19.34C13.3952 19.22 13.3952 19.07 13.3352 18.95C13.1552 18.59 13.0652 18.23 13.0652 17.84C13.0652 16.67 13.9052 15.68 15.0452 15.5C15.2552 15.47 15.4352 15.26 15.4052 15.05C15.4052 14.42 15.6452 13.82 16.0952 13.37C16.5452 12.92 17.1452 12.68 17.7752 12.68C18.4052 12.68 19.0052 12.92 19.4552 13.37C19.9052 13.82 20.1452 14.42 20.1452 15.05C20.1452 15.26 20.2952 15.47 20.5052 15.5C21.6452 15.71 22.4852 16.67 22.4852 17.84C22.4852 18.23 22.3952 18.59 22.2152 18.95C22.1552 19.07 22.1552 19.22 22.2152 19.34C22.2752 19.46 22.3652 19.55 22.5152 19.58C23.5652 19.85 24.2852 20.81 24.2852 21.89C24.2852 23.21 23.2052 24.26 21.9152 24.26C21.5852 24.26 21.2852 24.2 20.9852 24.08C20.8052 24.02 20.5952 24.05 20.4752 24.2C19.7552 24.95 18.8252 25.37 17.7752 25.37C16.7552 25.37 15.7952 24.95 15.0752 24.2C14.9852 24.11 14.8652 24.05 14.7452 24.05ZM36.4652 27.17V35.93C32.5052 33.29 27.8552 31.43 22.5152 30.41C27.3752 28.25 31.9652 27.17 36.4652 27.17Z" fill="#274F9A"/>
<circle cx="24.25" cy="24.5" r="23.7" stroke="#274F9A" stroke-width="0.6"/>
</svg>
