<svg width="49" height="49" viewBox="0 0 49 49" fill="none" xmlns="http://www.w3.org/2000/svg">
<rect x="8.11553" y="10.577" width="29.0769" height="29.0769" stroke="#274F9A" stroke-width="0.461538"/>
<path d="M8.83526 30.6169C8.79371 30.7323 8.79833 30.8616 8.85371 30.9723L11.4522 36.4646C11.5076 36.5754 11.5999 36.6631 11.7153 36.7046C11.8306 36.7462 11.9599 36.7369 12.066 36.6862L13.9122 35.8139L23.3645 37.8954C23.5122 37.9277 23.6645 37.9415 23.8122 37.9415C24.1214 37.9415 24.4306 37.8769 24.7122 37.7431L35.2999 32.7308C36.3429 32.2369 36.7906 30.9862 36.2968 29.9385C35.8029 28.8954 34.5522 28.4477 33.5091 28.9415L26.2491 32.38C26.0553 31.8446 25.6353 31.3969 25.0583 31.1939L20.6737 29.6246C20.6368 29.6108 20.6045 29.5969 20.5722 29.5831L17.3691 28.0369C16.2983 27.52 15.066 27.52 13.9906 28.0277L9.07065 30.3539C8.95988 30.4092 8.87681 30.5015 8.83526 30.6169ZM14.3876 28.8631C15.2091 28.4708 16.1506 28.4754 16.9676 28.8677L20.1706 30.4139C20.2353 30.4415 20.2999 30.4692 20.3645 30.4923L24.7491 32.0616C25.2937 32.2554 25.5799 32.86 25.386 33.4046C25.1922 33.9493 24.5876 34.2354 24.043 34.0415L20.0276 32.6062C19.7922 32.5231 19.5245 32.6477 19.4414 32.8877C19.3537 33.1277 19.4783 33.3908 19.7183 33.4739L23.7291 34.9092C24.7537 35.2785 25.8891 34.7431 26.2537 33.7139C26.2999 33.5985 26.3276 33.4739 26.346 33.3539L33.906 29.7769C34.4876 29.5 35.1891 29.7492 35.466 30.3354C35.7383 30.9169 35.4891 31.6185 34.9076 31.8954L24.3152 36.9077C24.0845 37.0185 23.8168 37.0462 23.5629 36.9908L13.9537 34.8769C13.9214 34.8723 13.8891 34.8677 13.8568 34.8677C13.7876 34.8677 13.7183 34.8815 13.6583 34.9139L12.0891 35.6569L9.88296 30.9908L14.3876 28.8631Z" fill="#274F9A"/>
<path d="M28.8154 12.2892C26.36 12.2892 24.0846 13.5907 22.8061 15.7046H14.3923C14.2446 15.7046 14.1015 15.7784 14.0184 15.8984L11.7477 19.0646C11.6323 19.2261 11.6323 19.443 11.7477 19.6L14.0184 22.7661C14.1015 22.8907 14.2446 22.96 14.3923 22.96H15.2415C15.38 22.96 15.5092 22.9 15.5969 22.7984L16.76 21.4277L17.9277 22.7984C18.0154 22.9 18.1446 22.96 18.2785 22.96C18.4169 22.96 18.5461 22.9 18.6338 22.7984L19.7969 21.4277L20.9646 22.7984C21.0523 22.9 21.1815 22.96 21.32 22.96H22.8061C24.0846 25.0784 26.36 26.38 28.8154 26.38C32.7015 26.38 35.8584 23.2184 35.8584 19.3323C35.8584 15.4461 32.7015 12.2892 28.8154 12.2892ZM31.0077 21.9907C29.5446 21.9907 28.3538 20.8 28.3538 19.3323C28.3538 17.8692 29.5446 16.6784 31.0077 16.6784C32.4708 16.6784 33.6661 17.8692 33.6661 19.3323C33.6661 20.8 32.4708 21.9907 31.0077 21.9907ZM17.0138 18.3307C17.0138 18.0769 17.2215 17.8692 17.4754 17.8692H23.0323C23.2908 17.8692 23.4938 18.0769 23.4938 18.3307C23.4938 18.5846 23.2908 18.7923 23.0323 18.7923H17.4754C17.2215 18.7923 17.0138 18.5846 17.0138 18.3307Z" fill="#274F9A"/>
<circle cx="24.5" cy="24.5" r="23.7" stroke="#274F9A" stroke-width="0.6"/>
</svg>
